<?xml version="1.0" encoding="utf-8"?>
<!-- Generator: Adobe Illustrator 22.1.0, SVG Export Plug-In . SVG Version: 6.00 Build 0)  -->
<svg version="1.1" id="Ebene_1" xmlns="http://www.w3.org/2000/svg" xmlns:xlink="http://www.w3.org/1999/xlink" x="0px" y="0px"
	 viewBox="0 0 497 240.5" style="enable-background:new 0 0 497 240.5;" xml:space="preserve">
<style type="text/css">
	.st0{clip-path:url(#SVGID_2_);}
	.st1{opacity:0.1;}
	.st2{fill:#FFFFFF;}
	.st3{fill:none;}
	.st4{fill:#E5BEA1;}
	.st5{fill:#63668A;}
	.st6{fill:#CF8B6D;}
	.st7{fill:none;stroke:#63668A;stroke-width:1.34;stroke-miterlimit:10;}
	.st8{fill:none;stroke:#63668A;stroke-width:5.39;stroke-miterlimit:10;}
</style>
<title>header-img</title>
<g id="Ebene_2_1_">
	<g id="Bike">
		<g>
			<defs>
				<rect id="SVGID_1_" x="-1" width="499" height="240"/>
			</defs>
			<clipPath id="SVGID_2_">
				<use xlink:href="#SVGID_1_"  style="overflow:visible;"/>
			</clipPath>
			<g class="st0">
				<g class="st1">
					<path class="st2" d="M497,272.5c-0.3-2-1.7-3.7-3.6-4.3c0,2.7,0.8,4.5,3.6,5.9V272.5z"/>
					<path class="st2" d="M399.7,268.4c0.4,2.7-0.9,4.3-3,5.7C396.2,270.7,396.5,270.2,399.7,268.4z"/>
					<path class="st2" d="M374.2,274c-3.4-1.9-3.4-1.9-3.6-5.8C373.1,269.3,374,271.1,374.2,274z"/>
					<path class="st2" d="M276.7,267.9c0.4,3.1-0.8,4.8-3.3,6.3C272.9,271.1,274.3,269.5,276.7,267.9z"/>
					<path class="st2" d="M251.2,273.8c-3.3-1.5-3.6-2-3.4-5.5C250.2,269.4,251.1,271.2,251.2,273.8z"/>
					<path class="st2" d="M150.1,274c-0.1-2.4,1.1-4.6,3.2-5.8C153.8,271.5,153.6,272,150.1,274z"/>
					<path class="st2" d="M124.7,268.1c2.1,1,3.5,3.1,3.5,5.4C125.2,272.7,124.9,272.3,124.7,268.1z"/>
					<path class="st2" d="M27.1,274.3c0.2-3.1,1-5,3.6-6.1C31,271,30.1,272.8,27.1,274.3z"/>
					<path class="st2" d="M1.8,268.3c2.4,1,3.2,2.9,3.4,5.5C2,272.4,1.7,272,1.8,268.3z"/>
					<path class="st2" d="M27.1,415.8c0.4-2.2,1.1-4.1,3.4-5.1C30.7,414.5,30,415.5,27.1,415.8z"/>
					<path class="st2" d="M4.9,416.4c-2.6-0.9-3.3-2.8-3.4-5.3C4.6,412.2,4.8,412.6,4.9,416.4z"/>
					<path class="st2" d="M497,384.1c-2.6,1.2-3.6,3-3.5,6.2c2.2-1.3,3.3-2.7,3.5-4.8V384.1z"/>
					<path class="st2" d="M399.6,389.9c-2.5-1-3.3-2.9-3.5-5.3C399.2,385.6,399.5,386,399.6,389.9z"/>
					<path class="st2" d="M374.3,384.1c-0.3,2.9-1.1,4.7-3.3,5.8C370.5,386.5,370.8,386.1,374.3,384.1z"/>
					<path class="st2" d="M273.1,383.7c2.8,1.8,3.9,3.5,3.7,6.4C274.1,388.8,273.2,387,273.1,383.7z"/>
					<path class="st2" d="M250.8,384.5c0.2,2.5-0.6,4.4-3.2,5.5C247.1,387.6,248.5,385.3,250.8,384.5z"/>
					<path class="st2" d="M153.6,389.9c-2.5-1-3.3-2.9-3.5-5.4C153.2,385.7,153.5,386.1,153.6,389.9z"/>
					<path class="st2" d="M128.3,383.7c-0.3,3.3-1.1,5.2-3.8,6.3C124.3,387.1,125.4,385.4,128.3,383.7z"/>
					<path class="st2" d="M27.5,384c2.4,1.5,3.5,3.2,3.3,5.7C27.8,388.3,27.5,387.8,27.5,384z"/>
					<path class="st2" d="M66.7,25.1c-2.8-1.8-4-3.4-3.5-6.2C65.8,20.1,66.6,21.9,66.7,25.1z"/>
					<path class="st2" d="M88.7,25.1c0-3.2,1.1-5,3.5-6.3C92.6,21.7,91.4,23.4,88.7,25.1z"/>
					<path class="st2" d="M186.3,19c2.5,1,3.3,2.9,3.4,5.4C186.5,23.1,186.2,22.7,186.3,19z"/>
					<path class="st2" d="M212.1,24.4c-0.5-2.4,0.8-4.7,3.1-5.5C215.7,21.8,214.3,23.3,212.1,24.4z"/>
					<path class="st2" d="M312.7,25.1c-2.9-1.7-3.9-3.4-3.6-6.2C311.7,20.1,312.6,21.9,312.7,25.1z"/>
					<path class="st2" d="M334.6,25.1c0-3.2,1.1-5,3.5-6.3C338.6,21.7,337.4,23.4,334.6,25.1z"/>
					<path class="st2" d="M432.2,18.8c2.1,1,3.5,3.1,3.5,5.5C432.6,23.3,432.3,22.9,432.2,18.8z"/>
					<path class="st2" d="M461.1,19c0.5,2.7-0.7,4.4-2.9,5.7C457.6,21.6,457.9,21.1,461.1,19z"/>
					<path class="st2" d="M5.3,27.7c-0.2,3.2-1.1,5-3.6,6.1C1.3,31.1,2.3,29.3,5.3,27.7z"/>
					<path class="st2" d="M27.2,27.8c2.8,1.6,3.8,3.3,3.6,6C28,32.7,27.3,30.8,27.2,27.8z"/>
					<path class="st2" d="M128.3,28.7c-0.3,2.2-1.1,4.1-3.4,5.1C124.7,30,125.3,29,128.3,28.7z"/>
					<path class="st2" d="M153.7,33.9c-2.6-1.1-3.3-3-3.7-5.3C152.9,29,153.3,29.6,153.7,33.9z"/>
					<path class="st2" d="M251.3,27.9c-0.2,2.9-1.1,4.7-3.2,5.8C247.5,30.7,247.7,30.2,251.3,27.9z"/>
					<path class="st2" d="M273.4,28.5c2.6,0.7,3.5,2.5,3.4,5.3C274,32.8,273.5,30.8,273.4,28.5z"/>
					<path class="st2" d="M374.3,28c-0.3,2.8-1.1,4.6-3.3,5.7C370.6,30.4,370.8,29.9,374.3,28z"/>
					<path class="st2" d="M399.7,33.9c-2.1-0.9-3.5-3-3.6-5.3C399,29.2,399.4,29.7,399.7,33.9z"/>
					<path class="st2" d="M1.5,390.4c0-3.4,0.9-5.2,3.6-6.4C5.3,387,4.1,388.6,1.5,390.4z"/>
					<path class="st2" d="M461.2,374.7c0.1,3.2-0.8,5-3.5,6.2C457.5,378.1,458.6,376.4,461.2,374.7z"/>
					<path class="st2" d="M334.5,380.9c0.3-2.8,1.1-4.6,3.2-5.8C338.3,378.3,338.1,378.8,334.5,380.9z"/>
					<path class="st2" d="M214.9,375.1c0.2,3.6,0,4-3.4,5.6C211.7,378,212.6,376.2,214.9,375.1z"/>
					<path class="st2" d="M88.6,380.7c-0.1-2.4,1.2-4.6,3.3-5.7C92.2,378.6,91.9,379.1,88.6,380.7z"/>
					<path class="st2" d="M399.8,339.1c0.1,3.2-0.9,5-3.5,6.2C396,342.4,397.2,340.7,399.8,339.1z"/>
					<path class="st2" d="M273.3,345.1c-0.2-2.7,1-4.3,3-5.8C276.8,342.8,276.6,343.2,273.3,345.1z"/>
					<path class="st2" d="M66.8,134.8c-0.2,2.9-1,4.7-3.2,5.8C63,137.5,63.2,137.1,66.8,134.8z"/>
					<path class="st2" d="M92,140.7c-2.4-1.1-3.2-3-3.3-5.6C91.9,136.7,92.2,137.1,92,140.7z"/>
					<path class="st2" d="M186,140.7c-0.1-2.9,0.9-4.6,3.1-5.7C189.6,138.1,189.4,138.7,186,140.7z"/>
					<path class="st2" d="M215.1,140.7c-2.5-1-3.3-2.9-3.5-5.4C214.8,136.4,215,136.8,215.1,140.7z"/>
					<path class="st2" d="M309,140.7c0.5-3.7,0.5-3.7,3.1-5.5C312.6,138.1,312.3,138.7,309,140.7z"/>
					<path class="st2" d="M335,135c2.5,1,3.4,2.9,3.3,5.4C335.2,139,335,138.7,335,135z"/>
					<path class="st2" d="M432,140.7c-0.2-2.8,0.8-4.6,3.4-6C435.7,137.8,434.7,139.5,432,140.7z"/>
					<path class="st2" d="M461.1,140.7c-2.5-1-3.3-2.9-3.5-5.4C460.7,136.4,461,136.8,461.1,140.7z"/>
					<path class="st2" d="M27.1,60.8c0.2-3.3,1.2-5.1,3.7-6.5C31.1,57.3,29.9,59,27.1,60.8z"/>
					<path class="st2" d="M150.2,60.1c-0.1-2.4,1.2-4.6,3.3-5.7C153.7,58.1,153.4,58.6,150.2,60.1z"/>
					<path class="st2" d="M273.2,60.1c-0.1-2.4,1.2-4.6,3.3-5.7C276.7,58.1,276.4,58.6,273.2,60.1z"/>
					<path class="st2" d="M399.7,53.9c0.2,3.5-0.8,5.2-3.4,6.6C395.9,57.5,397.3,56,399.7,53.9z"/>
					<path class="st2" d="M457.6,238.2c-0.1-2.4,1.2-4.6,3.3-5.7C461.2,236.1,460.9,236.6,457.6,238.2z"/>
					<path class="st2" d="M338.3,232.3c0.1,3.2-0.9,5-3.6,6.2C334.5,235.7,335.7,233.9,338.3,232.3z"/>
					<path class="st2" d="M211.5,238.8c0.3-3.2,1.1-5.1,3.6-6.2C215.6,235.4,214.4,237.1,211.5,238.8z"/>
					<path class="st2" d="M88.6,238.2c0.2-2.6,1-4.4,3.4-5.6C92.2,236.2,91.9,236.7,88.6,238.2z"/>
					<path class="st2" d="M396.3,202.7c-0.3-2.7,0.9-4.3,3-5.6C399.8,200.3,399.5,200.8,396.3,202.7z"/>
					<path class="st2" d="M153.8,338.9c0.2,3.4-0.9,5.2-3.4,6.5C149.9,342.4,151.4,340.9,153.8,338.9z"/>
					<path class="st2" d="M30.8,339.1c0.2,3.2-0.9,4.9-3.4,6.3C27,342.4,28.3,340.8,30.8,339.1z"/>
					<path class="st2" d="M497,313.3c-3,1.2-3.3,1.8-3.2,5.4c1.7-0.7,3-2.2,3.2-4V313.3z"/>
					<path class="st2" d="M396,313.1c3.3,1.5,3.6,2.1,3.4,5.6C397.1,317.5,396.2,315.7,396,313.1z"/>
					<path class="st2" d="M374.3,312.9c-0.3,2.8-1.1,4.6-3.3,5.8C370.5,315.4,370.8,314.9,374.3,312.9z"/>
					<path class="st2" d="M276.5,318.7c-2.4-1-3.2-2.9-3.4-5.4C276.3,314.4,276.6,315,276.5,318.7z"/>
					<path class="st2" d="M251.3,312.6c-0.3,3.1-1.1,5-3.7,6.1C247.3,315.9,248.3,314.2,251.3,312.6z"/>
					<path class="st2" d="M153.7,318.8c-2.6-1.1-3.4-3-3.7-5.3C152.9,313.9,153.3,314.5,153.7,318.8z"/>
					<path class="st2" d="M124.6,318.7c-0.3-2.8,0.7-4.6,3.4-6C128.2,315.8,127.2,317.5,124.6,318.7z"/>
					<path class="st2" d="M27.2,312.7c2.8,1.6,3.7,3.3,3.5,6C28,317.6,27.3,315.7,27.2,312.7z"/>
					<path class="st2" d="M1.6,319c-0.2-3.1,0.7-4.9,3.4-6.2C5.4,315.7,4.1,317.3,1.6,319z"/>
					<path class="st2" d="M276.8,196.6c0.2,3.2-0.9,4.9-3.3,6.3C272.9,199.9,274.3,198.4,276.8,196.6z"/>
					<path class="st2" d="M150.1,203.2c0.2-3.4,1.2-5.1,3.7-6.5C154,199.8,152.9,201.5,150.1,203.2z"/>
					<path class="st2" d="M27.2,202.6c-0.2-2.4,1.2-4.6,3.3-5.6C30.7,200.5,30.4,201,27.2,202.6z"/>
					<path class="st2" d="M66.6,167.5c-2.6-1.7-3.7-3.3-3.5-6.1C65.8,162.5,66.7,164.4,66.6,167.5z"/>
					<path class="st2" d="M88.5,167.7c0.3-3.4,1.1-5.3,3.7-6.4C92.6,164.2,91.3,165.8,88.5,167.7z"/>
					<path class="st2" d="M497,241.8c-3.4,2.2-3.6,2.6-2.9,5.7c1.6-0.8,2.7-2.4,2.9-4.2V241.8z"/>
					<path class="st2" d="M396.5,241.7c2.2,0.8,3.6,3.1,3.3,5.4C396.8,245.9,396.5,245.4,396.5,241.7z"/>
					<path class="st2" d="M374.2,241.6c-0.2,2.9-1,4.6-3.1,5.8C370.4,244.3,370.6,243.9,374.2,241.6z"/>
					<path class="st2" d="M276.5,247.5c-2.5-1-3.1-3-3.6-5.5C276.3,243.3,276.6,243.7,276.5,247.5z"/>
					<path class="st2" d="M251.2,241.6c-0.2,2.9-1.1,4.6-3.1,5.8C247.4,244.3,247.6,243.9,251.2,241.6z"/>
					<path class="st2" d="M153.8,247.8c-2.6-1.6-3.8-3.3-3.5-6.2C152.9,242.8,153.9,244.6,153.8,247.8z"/>
					<path class="st2" d="M124.5,247.5c-0.3-2.4,1-4.7,3.1-5.8C128.1,244.9,127.9,245.4,124.5,247.5z"/>
					<path class="st2" d="M27.1,241.3c2.8,1.6,3.9,3.3,3.7,6.2C28.1,246.4,27.3,244.6,27.1,241.3z"/>
					<path class="st2" d="M1.5,247.8c0-3.2,0.9-5,3.6-6.1C5.2,244.5,4.2,246.2,1.5,247.8z"/>
					<path class="st2" d="M457.6,309.7c0.2-2.9,1-4.6,3.1-5.8C461.3,307,461.1,307.4,457.6,309.7z"/>
					<path class="st2" d="M432.3,303.9c2.5,1,3.3,2.9,3.4,5.4C432.5,308,432.2,307.6,432.3,303.9z"/>
					<path class="st2" d="M334.7,309.5c-0.1-2.7,1-4.4,3.2-5.8C338.2,307.3,338,307.7,334.7,309.5z"/>
					<path class="st2" d="M309.3,303.7c2.4,1.5,3.3,3.2,3.3,5.6C309.4,307.9,309.2,307.5,309.3,303.7z"/>
					<path class="st2" d="M215.3,303.8c0.3,2.4-0.9,4.7-3.1,5.8C211.7,306.4,211.9,305.9,215.3,303.8z"/>
					<path class="st2" d="M189.3,309.6c-2.2-0.8-3.6-3.1-3.3-5.4C189.1,305.5,189.3,305.9,189.3,309.6z"/>
					<path class="st2" d="M92.2,303.9c0.4,2.7-0.7,4.4-2.9,5.7C88.7,306.4,88.9,306,92.2,303.9z"/>
					<path class="st2" d="M66.8,309.5c-3.4-1.6-3.7-2.1-3.5-5.6C65.8,304.9,66.5,306.9,66.8,309.5z"/>
					<path class="st2" d="M186.2,161.3c2.1,1,3.5,3.1,3.5,5.5C186.6,165.8,186.4,165.3,186.2,161.3z"/>
					<path class="st2" d="M215.2,161c0.3,3.2-0.9,4.9-3.3,6.3C211.4,164.4,212.7,162.8,215.2,161z"/>
					<path class="st2" d="M312.7,167c-3.3-1.6-3.5-2-3.4-5.6C311.7,162.5,312.6,164.4,312.7,167z"/>
					<path class="st2" d="M334.8,167.1c-0.2-2.7,0.9-4.4,3.1-5.7C338.3,164.7,338.1,165.1,334.8,167.1z"/>
					<path class="st2" d="M88.7,95.3c0.8-3.3,0.8-3.3,3.3-4.9C92.2,93.9,91.5,95,88.7,95.3z"/>
					<path class="st2" d="M432.2,161.4c2.5,1,3.1,3,3.6,5.4C432.5,165.7,432.3,165.2,432.2,161.4z"/>
					<path class="st2" d="M215.1,90.3c0.5,2.7-0.7,4.3-2.9,5.6C211.7,92.7,212,92.2,215.1,90.3z"/>
					<path class="st2" d="M461,161.2c0.2,3.7-0.1,4.2-3.3,5.7C457.6,164.6,458.9,162.3,461,161.2z"/>
					<path class="st2" d="M338.3,90.2c0.1,2.9-1,4.6-3.1,5.7C334.7,92.7,335,92.2,338.3,90.2z"/>
					<path class="st2" d="M461.3,90.2c0.1,2.9-1,4.6-3.1,5.7C457.7,92.7,457.9,92.2,461.3,90.2z"/>
					<path class="st2" d="M5.2,99.2c-0.2,2.9-1,4.6-3.1,5.8C1.5,101.9,1.6,101.5,5.2,99.2z"/>
					<path class="st2" d="M27.5,99.3c2.5,1,3.4,2.8,3.4,5.4C27.8,103.5,27.5,103.1,27.5,99.3z"/>
					<path class="st2" d="M128.3,98.8c-0.3,3.3-1.1,5.2-3.8,6.3C124.3,102.2,125.4,100.5,128.3,98.8z"/>
					<path class="st2" d="M150.1,98.9c2.9,1.5,3.8,3.3,3.8,6.2C151.1,104,150.3,102.2,150.1,98.9z"/>
					<path class="st2" d="M251.1,99.4c0.2,2.7-1.1,4.3-3.1,5.8C247.6,101.6,247.8,101.2,251.1,99.4z"/>
					<path class="st2" d="M276.5,105.2c-2.4-1.6-3.3-3.2-3.3-5.7C276.4,101,276.6,101.4,276.5,105.2z"/>
					<path class="st2" d="M374.2,99.2c-0.1,2.9-1,4.6-3.1,5.8C370.4,101.9,370.6,101.5,374.2,99.2z"/>
					<path class="st2" d="M399.8,105.3c-2.6-1.6-3.8-3.3-3.5-6.2C398.9,100.4,399.9,102.2,399.8,105.3z"/>
					<path class="st2" d="M5.2,170.5c-0.6,3.7-0.6,3.7-3.1,5.5C1.5,173,1.8,172.5,5.2,170.5z"/>
					<path class="st2" d="M27.1,170.8c3.2,1.3,3.5,1.8,3.4,5.5C28.1,175.2,27.3,173.3,27.1,170.8z"/>
					<path class="st2" d="M457.5,277.1c3,1.5,3.9,3.3,3.8,6.1C458.5,282.1,457.8,280.2,457.5,277.1z"/>
					<path class="st2" d="M435.7,277.2c-0.2,2.9-1,4.7-3.2,5.8C431.9,279.9,432.1,279.5,435.7,277.2z"/>
					<path class="st2" d="M334.5,277c3,1.6,4,3.3,3.7,6.1C335.6,282.1,334.8,280.2,334.5,277z"/>
					<path class="st2" d="M309,283.2c-0.2-2.8,0.8-4.6,3.4-6C312.7,280.2,311.7,282,309,283.2z"/>
					<path class="st2" d="M211.8,277.1c2.7,1.6,3.7,3.3,3.5,6C212.5,282,211.7,280.2,211.8,277.1z"/>
					<path class="st2" d="M189.8,277.2c-0.2,2.9-1,4.7-3.2,5.8C186,279.9,186.2,279.5,189.8,277.2z"/>
					<path class="st2" d="M88.6,277c3,1.6,4,3.3,3.7,6.1C89.6,282.1,88.8,280.2,88.6,277z"/>
					<path class="st2" d="M66.7,277.3c0.1,2.4-1.1,4.6-3.2,5.8C63,279.8,63.2,279.4,66.7,277.3z"/>
					<path class="st2" d="M128.3,170.4c-0.3,2.8-1.1,4.6-3.3,5.8C124.5,173,124.8,172.5,128.3,170.4z"/>
					<path class="st2" d="M150,170.2c3,1.6,4,3.3,3.7,6.1C151.1,175.2,150.3,173.3,150,170.2z"/>
					<path class="st2" d="M251.3,171.1c-0.3,2.2-1.1,4.1-3.4,5.1C247.6,172.5,248.3,171.4,251.3,171.1z"/>
					<path class="st2" d="M276.5,176.2c-2.3-1.1-3.2-2.9-3.4-5.5C276.4,172.1,276.7,172.7,276.5,176.2z"/>
					<path class="st2" d="M374.3,170.4c-0.2,2.9-1.1,4.6-3.2,5.8C370.5,173.1,370.7,172.6,374.3,170.4z"/>
					<path class="st2" d="M396.1,170.8c3.2,1.2,3.5,1.8,3.4,5.4C397.1,175.2,396.3,173.3,396.1,170.8z"/>
					<path class="st2" d="M1.5,125.7c2.8,1.3,3.5,3.2,3.9,6C2.3,130.6,1.6,128.7,1.5,125.7z"/>
					<path class="st2" d="M27.1,131.6c0.3-2.8,1.1-4.6,3.2-5.8C30.8,129.1,30.6,129.6,27.1,131.6z"/>
					<path class="st2" d="M124.7,125.7c2.6,1.2,3.3,3.1,3.7,5.4C125.2,130.4,124.9,129.9,124.7,125.7z"/>
					<path class="st2" d="M153.8,125.8c0,2.9-0.9,4.6-3.1,5.7C150.2,128.3,150.5,127.8,153.8,125.8z"/>
					<path class="st2" d="M250.9,131.2c-3-1.8-3-1.8-3.2-5.4C250.3,126.9,251,128.9,250.9,131.2z"/>
					<path class="st2" d="M273.1,131.4c0.2-2.6,1-4.5,3.4-5.6C276.7,129.4,276.4,129.8,273.1,131.4z"/>
					<path class="st2" d="M370.6,125.8c2.9,2,2.9,2,3.4,5.3C371.2,130.4,370.9,129.9,370.6,125.8z"/>
					<path class="st2" d="M399.8,125.5c0,3.1-0.8,5-3.5,6.2C396,128.8,397.2,127.1,399.8,125.5z"/>
					<line class="st3" x1="497" y1="131.1" x2="497" y2="129.8"/>
					<path class="st2" d="M1.8-16.6c2.4,1,3.2,2.9,3.4,5.5C2-12.5,1.7-12.9,1.8-16.6z"/>
					<path class="st2" d="M30.5-16.6c0.2,3.6-0.1,4.1-3.4,5.6C27.2-13.7,28.1-15.5,30.5-16.6z"/>
					<path class="st2" d="M128.3-10.6c-3-1.4-3.9-3.2-3.8-6C127.2-15.6,128-13.7,128.3-10.6z"/>
					<path class="st2" d="M153.8-17c0.1,3.1-0.8,5-3.6,6.2C150-13.6,151.2-15.3,153.8-17z"/>
					<path class="st2" d="M247.5-16.9c2.7,1.5,3.7,3.2,3.7,6C248.3-11.9,247.5-13.8,247.5-16.9z"/>
					<path class="st2" d="M273.1-11.1c0.2-2.6,1-4.4,3.4-5.5C276.6-13,276.4-12.5,273.1-11.1z"/>
					<path class="st2" d="M373.9-11c-2.6-0.9-3.3-2.8-3.4-5.3C373.5-15.1,373.7-14.7,373.9-11z"/>
					<path class="st2" d="M396-10.8c0.2-2.9,1.1-4.6,3.2-5.8C399.8-13.3,399.6-12.9,396-10.8z"/>
					<path class="st2" d="M497-12.4c-0.3-2-1.6-3.6-3.5-4.2c-0.2,2.6,0.7,4.3,3.5,6V-12.4z"/>
					<path class="st2" d="M63.2-1.8c-0.4-2.7,0.6-4.4,2.8-5.6C66.7-4.4,66.4-3.9,63.2-1.8z"/>
					<path class="st2" d="M92.3-1.6c-2.8-1.4-3.5-3.3-3.8-6.1C91.5-6.5,92.4-4.6,92.3-1.6z"/>
					<path class="st2" d="M186-1.5c-0.1-3.1,0.8-5,3.6-6.2C189.8-4.8,188.7-3,186-1.5z"/>
					<path class="st2" d="M215.4-1.5c-2.8-1.4-3.6-3.2-3.7-6C214.5-6.5,215.3-4.6,215.4-1.5z"/>
					<path class="st2" d="M312.7-7.4c-0.1,2.6-1,4.4-3.3,5.6C309.1-5.3,309.4-5.7,312.7-7.4z"/>
					<path class="st2" d="M338.1-1.6c-2.1-1-3.5-3.1-3.5-5.4C337.6-6.2,337.9-5.8,338.1-1.6z"/>
					<path class="st2" d="M432.1-1.9c-0.4-2.3,0.8-4.7,3-5.6C435.5-4.2,435.3-3.7,432.1-1.9z"/>
					<path class="st2" d="M461-1.8c-2.4-1.1-3.3-2.9-3.4-5.5C460.9-5.9,461.1-5.4,461-1.8z"/>
					<path class="st2" d="M124.7,410.7c2.5,1,3.3,2.9,3.5,5.3C125.1,415,124.8,414.6,124.7,410.7z"/>
					<path class="st2" d="M150.2,416.4c0.5-3.6,0.5-3.6,3.1-5.5C153.9,413.9,153.6,414.4,150.2,416.4z"/>
					<path class="st2" d="M251.2,416.2c-3.3-1.5-3.6-2-3.4-5.5C250.2,411.8,251.1,413.7,251.2,416.2z"/>
					<path class="st2" d="M273.1,416.3c0.1-2.6,1-4.5,3.3-5.6C276.7,414.2,276.5,414.7,273.1,416.3z"/>
					<path class="st2" d="M373.9,416c-2.7-0.8-3.5-2.6-3.4-5.4C373.3,411.7,373.9,413.7,373.9,416z"/>
					<path class="st2" d="M396.1,415.8c0.8-3.3,0.8-3.3,3.3-4.9C399.6,414.5,399,415.5,396.1,415.8z"/>
					<path class="st2" d="M497,414.9c-0.3-2-1.6-3.6-3.5-4.3c-0.3,2.5,1.1,5,3.5,5.9V414.9z"/>
					<path class="st2" d="M66.8,419.8c-0.2,2.9-1.1,4.6-3.2,5.8C63,422.3,63.2,421.8,66.8,419.8z"/>
					<path class="st2" d="M89,419.9c2.6,1,3.4,2.8,3.4,5.3C89.3,424,89.1,423.7,89,419.9z"/>
					<path class="st2" d="M186,426c-0.1-3.3,0.8-5.1,3.6-6.3C189.8,422.6,188.6,424.2,186,426z"/>
					<path class="st2" d="M211.6,419.6c3.5,2.4,3.5,2.4,3.5,5.9C212.6,424.5,211.8,422.7,211.6,419.6z"/>
					<path class="st2" d="M309,425.6c-0.2-2.8,0.8-4.6,3.4-6C312.7,422.7,311.7,424.4,309,425.6z"/>
					<path class="st2" d="M334.5,419.5c3,1.4,3.8,3.2,3.8,6.1C335.6,424.6,334.8,422.7,334.5,419.5z"/>
					<path class="st2" d="M435.7,419.9c-0.1,2.6-1,4.5-3.3,5.6C432.1,422.1,432.3,421.6,435.7,419.9z"/>
					<path class="st2" d="M457.6,420c3.3,1.6,3.6,2,3.3,5.6C458.6,424.4,457.7,422.6,457.6,420z"/>
					<path class="st2" d="M63.2,446.2c2.1,1,3.5,3.1,3.5,5.5C63.7,450.7,63.4,450.2,63.2,446.2z"/>
					<path class="st2" d="M92.2,445.9c0.3,3.2-0.9,4.8-3.3,6.4C88.4,449.2,89.7,447.7,92.2,445.9z"/>
					<path class="st2" d="M189.8,452.2c-3.4-2.2-3.4-2.2-3.5-5.8C188.8,447.3,189.5,449.2,189.8,452.2z"/>
					<path class="st2" d="M215,446.4c0.1,3.3,0.1,3.3-2.8,5.4C211.7,448.9,211.9,448.4,215,446.4z"/>
					<path class="st2" d="M312.3,452.1c-2.2-0.9-3.6-3.1-3.3-5.5C312.1,447.9,312.4,448.4,312.3,452.1z"/>
					<path class="st2" d="M334.8,452c-0.3-2.7,0.9-4.4,3-5.7C338.3,449.5,338.1,449.9,334.8,452z"/>
					<path class="st2" d="M432.2,446.3c2.5,1,3.3,2.9,3.5,5.4C432.5,450.5,432.3,450.1,432.2,446.3z"/>
					<path class="st2" d="M457.7,452c-0.2-2.7,1-4.4,3.1-5.8C461.3,449.6,461,450,457.7,452z"/>
					<path class="st2" d="M5.2,455.5c0.1,2.4-1.2,4.6-3.3,5.7C1.7,457.6,1.9,457.1,5.2,455.5z"/>
					<path class="st2" d="M27.1,455.7c3.2,1.3,3.5,1.8,3.4,5.5C28.1,460,27.3,458.2,27.1,455.7z"/>
					<path class="st2" d="M124.5,461.5c-0.1-3.1,0.8-5,3.5-6.2C128.3,458.1,127.1,459.8,124.5,461.5z"/>
					<path class="st2" d="M153.6,461.1c-2.5-0.9-3.1-3-3.6-5.4C153.2,456.8,153.6,457.4,153.6,461.1z"/>
					<path class="st2" d="M251.1,455.4c-0.6,3.7-0.6,3.7-3.1,5.5C247.5,457.9,247.8,457.4,251.1,455.4z"/>
					<path class="st2" d="M273.1,455.7c3.2,1.2,3.5,1.8,3.4,5.4C274.1,460.1,273.3,458.2,273.1,455.7z"/>
					<path class="st2" d="M370.5,461.4c-0.1-3.2,0.9-4.9,3.6-6.3C374.4,457.8,372.9,460.3,370.5,461.4z"/>
					<path class="st2" d="M399.6,461.3c-2.1-1-3.5-3.1-3.5-5.5C399.1,456.7,399.5,457.2,399.6,461.3z"/>
					<path class="st2" d="M497,455.5c-3.2,1.9-3.5,2.4-3,5.6c1.6-0.8,2.7-2.3,3-4.1V455.5z"/>
					<path class="st2" d="M424.2,186.5c-2.3,1.9-4.3,1.7-6.6,0.2C419.8,185,421.8,185.1,424.2,186.5z"/>
					<path class="st2" d="M475.8,186.4c-2.3,2-4.3,1.8-6.7,0.3C471.3,184.9,473.3,185.2,475.8,186.4z"/>
					<path class="st2" d="M1.6,197.1c2.7,1.1,3.5,2.9,3.5,5.7C2.3,201.7,1.4,199.9,1.6,197.1z"/>
					<path class="st2" d="M124.6,196.8c2.7,1.6,3.6,3.3,3.6,6C125.3,201.7,124.5,199.9,124.6,196.8z"/>
					<path class="st2" d="M251.1,202.8c-2.7-1.1-3.6-2.9-3.5-5.7C250.3,198.2,251.1,200,251.1,202.8z"/>
					<path class="st2" d="M374.1,202.8c-2.8-1.1-3.6-2.9-3.5-5.7C373.3,198.2,374.1,200,374.1,202.8z"/>
					<path class="st2" d="M63.1,212.1c-0.1-3,0.7-4.8,3.3-5.8C66.2,209.6,66.2,209.6,63.1,212.1z"/>
					<path class="st2" d="M91.9,211.8c-2.3-1-3.1-2.8-3.2-5.2C91.8,207.6,92.2,208.3,91.9,211.8z"/>
					<path class="st2" d="M189.2,206.5c0.5,2.3-0.8,4.6-2.9,5.4C185.6,209,187.1,207.6,189.2,206.5z"/>
					<path class="st2" d="M212.1,206.5c2.4,1.1,3.6,2.6,3.1,5.3C212.4,210.8,211.9,208.9,212.1,206.5z"/>
					<path class="st2" d="M309.2,212c-0.5-2.9,0.7-4.5,3.1-6C312.8,209,311.6,210.6,309.2,212z"/>
					<path class="st2" d="M338.4,212.2c-3.3-2.5-3.3-2.5-3.5-5.9C337.6,207.2,338.2,209.1,338.4,212.2z"/>
					<path class="st2" d="M435.6,205.8c-0.5,4.1-0.5,4.1-3.4,6C431.6,209,433,207.5,435.6,205.8z"/>
					<path class="st2" d="M457.7,205.9c2.7,1.6,3.8,3.2,3.5,6C458.3,210,458.3,210,457.7,205.9z"/>
					<path class="st2" d="M63.1,232.5c2,0.9,3.4,2.8,3.6,5C64.2,237.7,63.5,236.9,63.1,232.5z"/>
					<path class="st2" d="M186,232.2c3.3,2.8,3.3,2.8,3.2,6C186.7,237.1,185.9,235.3,186,232.2z"/>
					<path class="st2" d="M312.6,238.6c-2.7-1.5-3.9-3.1-3.4-5.8C312,234.5,312,234.5,312.6,238.6z"/>
					<path class="st2" d="M432,232.4c2.3,1,3.8,3.4,3.7,5.9C432.7,237.3,432,235.4,432,232.4z"/>
					<path class="st2" d="M48.4,257.9c2.5-1.6,4.5-1.9,6.6-0.1C52.1,259.4,52.1,259.4,48.4,257.9z"/>
					<path class="st2" d="M107,257.9c-2.5,1.4-4.5,1.5-6.6,0.3C102.9,256.1,102.9,256.1,107,257.9z"/>
					<path class="st2" d="M171.3,258c2.6-1.7,4.6-2,6.9,0C176,259.4,174,259.3,171.3,258z"/>
					<path class="st2" d="M222.9,258c2.5-1.9,4.5-1.9,6.9,0C227.5,259.4,225.6,259.4,222.9,258z"/>
					<path class="st2" d="M294.3,258c2.7-1.7,4.6-2,6.9,0C298.9,259.4,297,259.3,294.3,258z"/>
					<path class="st2" d="M345.8,257.9c2.7-1.7,4.6-1.8,7,0.1C350.4,259.3,348.5,259.4,345.8,257.9z"/>
					<path class="st2" d="M424.6,257.8c-2.8,1.6-4.7,1.5-7.1,0.2C419.8,256,421.8,256.4,424.6,257.8z"/>
					<path class="st2" d="M475.6,258.1c-1.9,1.2-4.3,1.3-6.2,0.3C471.8,256,472.4,256,475.6,258.1z"/>
					<path class="st2" d="M48.4,329c3.9-1.4,3.9-1.4,6.6,0.2C52.9,330.8,50.9,330.8,48.4,329z"/>
					<path class="st2" d="M100.5,329c2.7-1.4,2.7-1.4,5.8-0.2C104,330.9,103.3,330.9,100.5,329z"/>
					<path class="st2" d="M171.1,329.2c2.9-1.6,4.8-1.6,7.2-0.2C176,331,174,330.5,171.1,329.2z"/>
					<path class="st2" d="M222.9,328.9c2.7-1.3,4.6-1.4,6.8,0.2C227.4,330.8,225.4,330.8,222.9,328.9z"/>
					<path class="st2" d="M294.6,329.1c2.3-1.6,4.3-1.6,6.6,0C298.9,330.8,296.9,330.8,294.6,329.1z"/>
					<path class="st2" d="M352.7,329.1c-2.3,1.6-4.3,1.7-6.6-0.1C348.5,327.5,350.5,327.4,352.7,329.1z"/>
					<path class="st2" d="M417.4,329.2c3.6-1.6,3.6-1.6,6.7-0.1C422,330.9,420,330.6,417.4,329.2z"/>
					<path class="st2" d="M468.8,329.1c2.6-1.6,4.6-1.5,6.9-0.2C473.5,330.9,471.5,330.6,468.8,329.1z"/>
					<path class="st2" d="M2,339.6c2.3,1,3.1,2.8,3.2,5.2C2.1,343.8,1.7,343.1,2,339.6z"/>
					<path class="st2" d="M128,345.5c-2.5-1.5-3.7-3.1-3.5-5.6C127.5,341,127.6,341.1,128,345.5z"/>
					<path class="st2" d="M247.4,339.3c3.3,2.4,3.3,2.4,3.6,5.8C248.2,344.2,247.6,342.3,247.4,339.3z"/>
					<path class="st2" d="M374.1,345.6c-2.6-1.7-3.9-3.2-3.4-5.9C373.5,341.4,373.5,341.4,374.1,345.6z"/>
					<path class="st2" d="M497,343.7c-0.2-2-1.6-3.6-3.5-4.2c-0.1,2.7,0.8,4.4,3.5,5.8V343.7z"/>
					<path class="st2" d="M63.2,354.6c-0.3-3.2,0.9-4.7,3.5-6.3C66.7,351.3,65.7,353,63.2,354.6z"/>
					<path class="st2" d="M88.8,348.6c2.8,1.1,3.7,2.9,3.5,5.7C89.6,353.2,88.7,351.4,88.8,348.6z"/>
					<path class="st2" d="M189.2,348.9c0.5,2.3-0.8,4.6-3,5.4C185.6,351.4,187.1,350,189.2,348.9z"/>
					<path class="st2" d="M212.1,349c2.3,0.7,3.6,3,3.2,5.3C212.5,353.3,211.8,351.4,212.1,349z"/>
					<path class="st2" d="M312.5,348.3c0.3,3.2-0.9,4.8-3.3,6.3C308.7,351.4,310,349.9,312.5,348.3z"/>
					<path class="st2" d="M334.6,348.2c2.8,1.7,3.9,3.3,3.7,6.1C335.5,353.3,334.8,351.4,334.6,348.2z"/>
					<path class="st2" d="M432.1,354.4c-0.4-2.4,0.8-4.7,2.9-5.8C435.6,351.7,435.5,351.9,432.1,354.4z"/>
					<path class="st2" d="M460.9,354.3c-2.3-1-3.1-2.8-3.3-5.1C460.7,349.9,461.1,350.6,460.9,354.3z"/>
					<path class="st2" d="M66.6,381c-2.7-1.5-3.9-3.1-3.4-5.8C66,376.9,66,376.9,66.6,381z"/>
					<path class="st2" d="M189.6,380.7c-2.9-1.1-3.7-2.9-3.5-5.7C188.7,376.1,189.6,377.9,189.6,380.7z"/>
					<path class="st2" d="M312.6,381c-2.7-1.5-3.9-3.1-3.4-5.8C312,376.9,312,376.9,312.6,381z"/>
					<path class="st2" d="M435.8,381.1c-2.9-1.6-4.1-3.2-3.6-6.1C434.6,376.1,435.4,377.9,435.8,381.1z"/>
					<path class="st2" d="M48.3,400.4c2.7-1.7,4.6-2,6.9,0C53,401.9,51,401.7,48.3,400.4z"/>
					<path class="st2" d="M106.6,400.6c-1.9,1.2-4.3,1.2-6.2,0.1C103,398.4,103.6,398.4,106.6,400.6z"/>
					<path class="st2" d="M171.5,400.5c2.4-2,4.3-1.9,6.7-0.3C176,402.1,174,401.7,171.5,400.5z"/>
					<path class="st2" d="M229.9,400.3c-3.7,1.5-3.7,1.5-6.6-0.1C225.4,398.4,227.4,398.7,229.9,400.3z"/>
					<path class="st2" d="M301.5,400.3c-3.9,1.5-3.9,1.5-6.8-0.1C296.9,398.4,298.9,398.8,301.5,400.3z"/>
					<path class="st2" d="M353,400.4c-2.7,1.4-4.7,1.4-7,0.1C348.4,398.5,350.4,398.7,353,400.4z"/>
					<path class="st2" d="M417.3,400.4c2.6-1.8,4.6-2,6.9-0.1C422,401.9,420,401.7,417.3,400.4z"/>
					<path class="st2" d="M475.5,400.6c-1.9,1.2-4.3,1.2-6.2,0.1C472,398.4,472.6,398.4,475.5,400.6z"/>
					<path class="st2" d="M55.4-26.9c-2.1,1.3-4.8,1.4-7,0.1C50.9-28.8,52.9-28.7,55.4-26.9z"/>
					<path class="st2" d="M100.1-27c2.3-1.8,4.3-1.7,6.7,0C104.4-25.5,102.4-25.4,100.1-27z"/>
					<path class="st2" d="M178.4-26.9c-2.7,1.4-4.6,1.4-6.8-0.1C173.9-28.7,175.9-28.8,178.4-26.9z"/>
					<path class="st2" d="M223.1-26.9c2.3-2,4.3-1.8,6.7-0.2C227.5-25.3,225.5-25.5,223.1-26.9z"/>
					<path class="st2" d="M301.5-27c-2.7,1.5-4.6,1.4-7,0.1C296.9-28.8,298.8-28.6,301.5-27z"/>
					<path class="st2" d="M352.9-27.1c-3.6,1.6-3.6,1.6-6.7,0.1C348.4-28.9,350.3-28.5,352.9-27.1z"/>
					<path class="st2" d="M417.4-26.9c2.5-1.7,4.5-1.9,6.6-0.2C421.2-25.5,421.2-25.5,417.4-26.9z"/>
					<path class="st2" d="M476.2-27c-3,1.4-4.9,1.6-7.1,0C471.4-28.9,473.4-28.5,476.2-27z"/>
					<path class="st2" d="M55.2,44.2c-2.3,1.8-4.3,1.7-6.6,0C50.9,42.6,52.9,42.5,55.2,44.2z"/>
					<path class="st2" d="M99.9,44.2c2.7-1.6,4.6-1.3,7.1-0.3C104.5,46,102.5,45.8,99.9,44.2z"/>
					<path class="st2" d="M171.7,44c1.8-1.3,4.2-1.4,6.1-0.2C175.5,46,174.8,46,171.7,44z"/>
					<path class="st2" d="M229.8,44.1c-2.3,1.8-4.3,1.8-6.6,0.1C225.4,42.5,227.4,42.7,229.8,44.1z"/>
					<path class="st2" d="M301.3,44.1c-2.5,1.7-4.5,1.8-6.6,0.1C297.6,42.7,297.6,42.7,301.3,44.1z"/>
					<path class="st2" d="M352.9,44.2c-2.5,1.8-4.5,1.6-6.8,0.2C349.2,42.7,349.2,42.7,352.9,44.2z"/>
					<path class="st2" d="M424.7,44c-3.9,1.8-3.9,1.8-7,0.3C419.8,42.3,421.8,42.9,424.7,44z"/>
					<path class="st2" d="M468.8,44.2c2.6-1.6,4.6-1.5,7-0.2C473.5,46,471.5,45.7,468.8,44.2z"/>
					<path class="st2" d="M1.8,54.4C4.2,56,5.3,57.7,5,60.5C2.4,59.1,1.3,57.5,1.8,54.4z"/>
					<path class="st2" d="M124.6,54.5c2.2,0.9,3.6,3.1,3.6,5.4C125.2,58.9,125,58.7,124.6,54.5z"/>
					<path class="st2" d="M247.4,54.3c2.8,1.6,3.7,3.3,3.7,6C248.3,59.3,247.6,57.4,247.4,54.3z"/>
					<path class="st2" d="M370.5,54.4c2.7,1.6,3.6,3.3,3.6,6C371.3,59.3,370.5,57.5,370.5,54.4z"/>
					<path class="st2" d="M66.5,63.7c0.2,2.9-0.8,4.6-3.3,5.8C62.8,66.6,63.8,64.9,66.5,63.7z"/>
					<path class="st2" d="M88.5,63.6c3.1,1.2,3.8,3.1,3.9,5.8C89.4,68.4,88.9,66.4,88.5,63.6z"/>
					<path class="st2" d="M189.2,64.1c0.5,2.3-0.8,4.6-2.9,5.4C185.6,66.6,187.1,65.1,189.2,64.1z"/>
					<path class="st2" d="M215.2,69.4c-2.6-1.1-3.5-2.9-3.5-5.7C214.5,64.8,215.4,66.6,215.2,69.4z"/>
					<path class="st2" d="M312.6,63.2c-0.6,4.3-0.6,4.3-3.4,6.2C308.6,66.6,310.1,65.1,312.6,63.2z"/>
					<path class="st2" d="M338.2,69.4c-2.6-1.1-3.5-2.9-3.5-5.7C337.5,64.8,338.4,66.6,338.2,69.4z"/>
					<path class="st2" d="M435.7,63.2c-0.3,3.3-1.1,5.1-3.5,6.2C431.6,66.6,433,65.1,435.7,63.2z"/>
					<path class="st2" d="M457.7,63.7c2.9,1.1,3.7,2.9,3.5,5.7C458.5,68.4,457.7,66.5,457.7,63.7z"/>
					<path class="st2" d="M63.1,90.2c2.6,1.1,3.5,2.9,3.4,5.7C63.8,94.8,62.9,93,63.1,90.2z"/>
					<path class="st2" d="M186,90c3.1,2.3,3.1,2.3,3.4,5.7C186.7,94.9,186,93,186,90z"/>
					<path class="st2" d="M312.4,95.4c-3-1.7-3-1.7-3.2-5.2C311.8,91.2,312.4,93.1,312.4,95.4z"/>
					<path class="st2" d="M435.5,96.1c-2.6-1.5-3.6-3.1-3.5-5.6C435,91.7,435,91.7,435.5,96.1z"/>
					<path class="st2" d="M48.4,115.8c2.5-2.2,4.5-1.8,6.9-0.5C53,117.3,51,116.7,48.4,115.8z"/>
					<path class="st2" d="M100.6,115.5c1.9-1.8,3.8-1.8,6.2-0.3C104.5,117.3,102.5,116.7,100.6,115.5z"/>
					<path class="st2" d="M171.4,115.4c2.6-1.5,4.6-1.8,6.7,0C175.1,116.9,175.1,116.9,171.4,115.4z"/>
					<path class="st2" d="M230,115.5c-2,1.3-4.5,1.5-6.6,0.4C225.9,113.6,225.9,113.6,230,115.5z"/>
					<path class="st2" d="M294.3,115.6c2.6-1.8,4.6-1.9,6.9-0.1C299,117,297,116.8,294.3,115.6z"/>
					<path class="st2" d="M346,115.5c2.5-1.8,4.4-1.8,6.6-0.1C349.6,116.9,349.6,116.9,346,115.5z"/>
					<path class="st2" d="M417.3,115.7c2.5-2.2,4.5-1.8,6.9-0.5C421.9,117.3,420,116.7,417.3,115.7z"/>
					<path class="st2" d="M469.1,115.5c2.3-1.9,4.3-1.7,6.7-0.1C473.4,117,471.5,117,469.1,115.5z"/>
					<path class="st2" d="M48.6,186.7c2.3-1.7,4.3-1.6,6.6-0.1C52.9,188.4,50.9,188.3,48.6,186.7z"/>
					<path class="st2" d="M107,186.3c-2.5,2.3-4.5,1.8-6.9,0.6C102.4,184.7,104.3,185.5,107,186.3z"/>
					<path class="st2" d="M171.7,186.5c1.8-1.3,4.2-1.4,6.1-0.2C175.5,188.5,174.8,188.5,171.7,186.5z"/>
					<path class="st2" d="M222.9,186.5c2.7-1.4,4.6-1.4,6.9,0C227.4,188.4,225.4,188.3,222.9,186.5z"/>
					<path class="st2" d="M301.4,186.5c-2.5,2-4.5,1.7-7,0.2C297,185,298.9,185.2,301.4,186.5z"/>
					<path class="st2" d="M346.1,186.6c2.3-1.6,4.3-1.6,6.6,0.1C350.4,188.3,348.4,188.4,346.1,186.6z"/>
					<path class="st2" d="M45.2,293.4c-2.5,1.7-4.4,1.6-6.7,0.1C40.9,291.9,42.8,292,45.2,293.4z"/>
					<path class="st2" d="M110.6,293.1c1.7-1.2,4-1.1,5.7,0.1C113.8,295.4,113,295.3,110.6,293.1z"/>
					<path class="st2" d="M168.1,293.5c-2.2,1.6-4.1,1.6-6,0.5C163.9,291.8,164.2,291.7,168.1,293.5z"/>
					<path class="st2" d="M239.8,293.4c-2.5,1.7-4.3,1.5-6.8,0.1C235.5,291.9,237.3,291.9,239.8,293.4z"/>
					<path class="st2" d="M290.7,293.8c-1.6,1.3-3.9,1.3-5.6,0.1C287.2,291.7,288.2,291.7,290.7,293.8z"/>
					<path class="st2" d="M356.1,293.4c2.5-1.5,4.4-1.6,6.6,0.1C360.4,295.1,358.5,295.1,356.1,293.4z"/>
					<path class="st2" d="M414.3,293.3c-2.5,1.7-4.4,1.8-6.7,0.2C409.7,291.8,411.6,292,414.3,293.3z"/>
					<path class="st2" d="M479.4,293.3c1.7-1.4,4.2-1.4,6-0.2C482.7,295.3,482.7,295.3,479.4,293.3z"/>
					<path class="st2" d="M45.4,435.8c-2.7,1.7-4.5,1.7-6.8,0.2C40.9,434.2,42.8,434.5,45.4,435.8z"/>
					<path class="st2" d="M110.6,435.5c1.7-1.2,4-1.1,5.7,0.1C113.8,437.8,113,437.8,110.6,435.5z"/>
					<path class="st2" d="M168.2,435.8c-2.5,1.7-4.3,1.6-6.7,0.2C163.8,434.3,165.7,434.4,168.2,435.8z"/>
					<path class="st2" d="M239.9,435.9c-2.5,1.6-4.3,1.6-6.7,0C235.4,434.4,237.3,434.4,239.9,435.9z"/>
					<path class="st2" d="M291.3,435.8c-2.5,1.7-4.3,1.7-6.6,0.2C286.8,434.3,288.7,434.4,291.3,435.8z"/>
					<path class="st2" d="M362.5,436.1c-1.7,1.4-4.2,1.5-6,0.1C359.1,434.2,359.3,434.2,362.5,436.1z"/>
					<path class="st2" d="M414,436c-2.2,1.5-4.1,1.5-6,0.2C410.3,434.2,410.5,434.2,414,436z"/>
					<path class="st2" d="M485.5,436.1c-1.7,1.4-4.2,1.4-5.9,0.1C482.2,434.2,482.3,434.2,485.5,436.1z"/>
					<path class="st2" d="M239.5,151.2c-1.7,1.4-4.2,1.5-6,0.1C236.1,149.3,236.3,149.3,239.5,151.2z"/>
					<path class="st2" d="M161.7,150.9c1.8-1.3,4.2-1.4,6.1-0.2C165.3,152.8,165.2,152.8,161.7,150.9z"/>
					<path class="st2" d="M116.6,151.1c-2.2,1.5-4.1,1.5-6,0.2C112.9,149.3,113.1,149.3,116.6,151.1z"/>
					<path class="st2" d="M38.7,151c3.1-1.4,3.1-1.4,6-0.3C42.5,152.8,42.3,152.8,38.7,151z"/>
					<path class="st2" d="M485.4,151.2c-2,1.5-3.9,1.3-6,0.1C482.3,149.3,482.4,149.3,485.4,151.2z"/>
					<path class="st2" d="M407.6,151.1c3.3-1.7,3.3-1.7,6.4,0C411.9,152.6,410,152.7,407.6,151.1z"/>
					<path class="st2" d="M362.6,151.1c-2.2,1.5-4.1,1.5-6,0.2C358.8,149.3,359.1,149.3,362.6,151.1z"/>
					<path class="st2" d="M291,151.1c-3.2,1.3-3.2,1.3-6,0.2C287.3,149.3,287.5,149.3,291,151.1z"/>
					<path class="st2" d="M486.1,79.8c-2.9,1.4-4.9,1.6-6.9,0C481.4,78,483.4,78.4,486.1,79.8z"/>
					<path class="st2" d="M414.2,79.8c-2.3,1.6-4.3,1.7-6.5,0.1C409.9,78.1,411.9,78.2,414.2,79.8z"/>
					<path class="st2" d="M362.8,79.8c-3.5,1.5-3.5,1.5-6.6,0C358.4,78.1,360.3,78.3,362.8,79.8z"/>
					<path class="st2" d="M284.6,79.9c2.2-1.8,4.2-1.6,6.6-0.2C288.9,81.4,286.9,81.4,284.6,79.9z"/>
					<path class="st2" d="M239.7,79.8c-2.2,1.8-4.2,1.6-6.6,0.1C235.4,78.1,237.4,78.2,239.7,79.8z"/>
					<path class="st2" d="M168.7,79.8c-2.9,1.5-4.9,1.7-7,0.1C163.9,78,165.9,78.5,168.7,79.8z"/>
					<path class="st2" d="M110,79.8c2.4-1.6,4.3-1.6,6.4-0.3C114,81.4,113.8,81.4,110,79.8z"/>
					<path class="st2" d="M45.2,79.9c-2.4,1.4-4.3,1.6-6.5-0.1C41,78.2,43,78.2,45.2,79.9z"/>
					<path class="st2" d="M38.6,222.2c2.3-1.6,4.3-1.6,6.3-0.3C42.5,223.9,42.2,223.9,38.6,222.2z"/>
					<path class="st2" d="M110,222.3c3.5-1.6,3.5-1.6,6.6-0.1C114.5,224,112.5,223.7,110,222.3z"/>
					<path class="st2" d="M161.7,222.2c1.9-1.6,4.7-1.6,6.5,0.1C165.9,223.8,163.9,223.9,161.7,222.2z"/>
					<path class="st2" d="M239.9,222.3c-2.6,1.4-4.6,1.5-6.8,0C235.4,220.6,237.4,220.7,239.9,222.3z"/>
					<path class="st2" d="M291.2,222.2c-2.3,1.7-4.2,1.6-6.6,0.1C286.9,220.5,288.9,220.7,291.2,222.2z"/>
					<path class="st2" d="M355.9,222.3c2.6-1.6,4.6-1.6,6.8-0.1C360.4,224,358.5,223.7,355.9,222.3z"/>
					<path class="st2" d="M38.7,364.7c1.9-1.6,4.7-1.6,6.5,0.1C42.9,366.2,40.9,366.4,38.7,364.7z"/>
					<path class="st2" d="M116.8,364.7c-2.4,1.5-4.3,1.5-6.4,0.3C112.9,363,113.1,363,116.8,364.7z"/>
					<path class="st2" d="M168.2,364.7c-2.3,1.5-4.3,1.6-6.5,0C163.9,363,165.9,363.1,168.2,364.7z"/>
					<path class="st2" d="M239.8,364.6c-2.4,1.8-4.4,1.5-6.9,0.2C235.4,363,237.4,363.2,239.8,364.6z"/>
					<path class="st2" d="M291.3,364.5c-2.4,2-4.4,1.5-6.9,0.5C286.9,362.8,288.9,363.4,291.3,364.5z"/>
					<path class="st2" d="M355.9,364.7c2.6-1.5,4.6-1.8,6.8,0C360.5,366.3,358.5,366.2,355.9,364.7z"/>
					<path class="st2" d="M414.5,364.7c-2.6,1.5-4.5,1.6-6.8,0.1C409.9,362.9,411.8,363.2,414.5,364.7z"/>
					<path class="st2" d="M478.9,364.8c2.5-1.9,4.5-1.6,6.8-0.2C483.4,366.5,481.4,366.1,478.9,364.8z"/>
					<path class="st2" d="M414.4,222.3c-2.1,1.4-4.8,1.5-6.9,0.2C409.9,220.5,411.8,220.7,414.4,222.3z"/>
					<path class="st2" d="M485.6,222.3c-1.9,1.6-4.7,1.6-6.5-0.1C481.4,220.7,483.4,220.6,485.6,222.3z"/>
					<path class="st2" d="M479.1,8.6c2.4-1.7,4.3-1.5,6.7-0.1C483.5,10.2,481.6,10.2,479.1,8.6z"/>
					<path class="st2" d="M414,8.7c-2.2,1.5-4.1,1.5-6,0.2C410.3,6.9,410.4,6.8,414,8.7z"/>
					<path class="st2" d="M356.1,8.5c2.5-1.5,4.4-1.6,6.6,0.1C360.4,10.2,358.6,10.2,356.1,8.5z"/>
					<path class="st2" d="M284.5,8.7c2.4-1.7,4.2-1.6,6.7-0.1C288.9,10.2,287,10.2,284.5,8.7z"/>
					<path class="st2" d="M239.6,8.7c-2.2,1.5-4.1,1.5-6,0.2C235.9,6.9,236.1,6.9,239.6,8.7z"/>
					<path class="st2" d="M167.9,8.7c-1.7,1.4-4.2,1.5-6,0.2C164.5,6.8,164.6,6.8,167.9,8.7z"/>
					<path class="st2" d="M116.5,8.8c-1.7,1.4-4.2,1.5-6,0.1C113.1,6.8,113.3,6.8,116.5,8.8z"/>
					<path class="st2" d="M38.5,8.6c1.9-1.6,4.7-1.6,6.7-0.1C42.9,10.2,41,10.2,38.5,8.6z"/>
				</g>
			</g>
		</g>
		<circle class="st4" cx="223.4" cy="69.5" r="32.2"/>
		<path class="st5" d="M223.4,38.6c17.1,0,30.9,13.8,30.9,30.9s-13.8,30.9-30.9,30.9s-30.9-13.8-30.9-30.9
			C192.5,52.4,206.4,38.6,223.4,38.6 M223.4,35.9c-18.6,0-33.6,15-33.6,33.6c0,18.6,15,33.6,33.6,33.6c18.6,0,33.6-15,33.6-33.6
			c0,0,0,0,0,0C257,51,242,35.9,223.4,35.9L223.4,35.9z"/>
		<path class="st6" d="M223.4,95.7c-14.5,0-26.2-11.7-26.2-26.2s11.7-26.2,26.2-26.2c14.5,0,26.2,11.7,26.2,26.2c0,0,0,0,0,0
			C249.6,83.9,237.9,95.7,223.4,95.7z"/>
		<path class="st5" d="M223.4,44c14.1,0,25.5,11.4,25.5,25.5s-11.4,25.5-25.5,25.5s-25.5-11.4-25.5-25.5
			C197.9,55.4,209.3,44,223.4,44 M223.4,42.6c-14.8,0-26.9,12-26.9,26.9c0,14.8,12,26.9,26.9,26.9s26.9-12,26.9-26.9c0,0,0,0,0,0
			C250.3,54.7,238.3,42.7,223.4,42.6L223.4,42.6z"/>
		<line class="st7" x1="223.4" y1="42.6" x2="223.4" y2="95.7"/>
		<line class="st7" x1="210.2" y1="46.2" x2="236.7" y2="92.2"/>
		<line class="st7" x1="200.4" y1="55.9" x2="246.4" y2="82.4"/>
		<line class="st7" x1="196.9" y1="69.2" x2="250" y2="69.2"/>
		<line class="st7" x1="200.4" y1="82.4" x2="246.4" y2="55.9"/>
		<line class="st7" x1="210.2" y1="92.2" x2="236.7" y2="46.2"/>
		<circle class="st4" cx="100.5" cy="69.5" r="32.2"/>
		<path class="st5" d="M100.5,38.6c17.1,0,30.9,13.8,30.9,30.9s-13.8,30.9-30.9,30.9S69.6,86.6,69.6,69.5l0,0
			C69.6,52.4,83.4,38.6,100.5,38.6 M100.5,35.9c-18.6,0-33.6,15-33.6,33.6s15,33.6,33.6,33.6s33.6-15,33.6-33.6l0,0
			C134.1,51,119,35.9,100.5,35.9C100.5,35.9,100.5,35.9,100.5,35.9z"/>
		<path class="st6" d="M100.5,95.7c-14.5,0-26.2-11.7-26.2-26.2S86,43.3,100.5,43.3s26.2,11.7,26.2,26.2c0,0,0,0,0,0
			C126.7,83.9,114.9,95.7,100.5,95.7z"/>
		<path class="st5" d="M100.5,44c14.1,0,25.5,11.4,25.6,25.5S114.6,95,100.5,95S74.9,83.6,74.9,69.5c0,0,0,0,0,0
			C74.9,55.4,86.4,44,100.5,44 M100.5,42.6c-14.8,0-26.9,12-26.9,26.9s12,26.9,26.9,26.9s26.9-12,26.9-26.9l0,0
			C127.3,54.7,115.3,42.7,100.5,42.6L100.5,42.6z"/>
		<line class="st7" x1="100.5" y1="42.6" x2="100.5" y2="95.7"/>
		<line class="st7" x1="87.2" y1="46.2" x2="113.7" y2="92.2"/>
		<line class="st7" x1="77.5" y1="55.9" x2="123.4" y2="82.4"/>
		<line class="st7" x1="73.9" y1="69.2" x2="127" y2="69.2"/>
		<line class="st7" x1="77.5" y1="82.4" x2="123.4" y2="55.9"/>
		<line class="st7" x1="87.2" y1="92.2" x2="113.7" y2="46.2"/>
		<path class="st4" d="M463.4,101.8c-17.8,0-32.3-14.4-32.3-32.3s14.4-32.3,32.3-32.3s32.3,14.4,32.3,32.3c0,0,0,0,0,0
			C495.6,87.3,481.2,101.7,463.4,101.8z"/>
		<path class="st5" d="M463.4,38.6c17.1,0,30.9,13.8,30.9,30.9s-13.8,30.9-30.9,30.9c-17.1,0-30.9-13.8-30.9-30.9
			C432.5,52.4,446.3,38.6,463.4,38.6 M463.4,35.9c-18.6,0-33.6,15-33.6,33.6s15,33.6,33.6,33.6s33.6-15,33.6-33.6
			C497,51,482,35.9,463.4,35.9C463.4,35.9,463.4,35.9,463.4,35.9z"/>
		<path class="st6" d="M463.4,95.7c-14.5,0-26.2-11.7-26.2-26.2c0-14.5,11.7-26.2,26.2-26.2c14.5,0,26.2,11.7,26.2,26.2c0,0,0,0,0,0
			C489.6,83.9,477.9,95.7,463.4,95.7z"/>
		<path class="st5" d="M463.4,44c14.1,0,25.5,11.4,25.5,25.5S477.5,95,463.4,95c-14.1,0-25.5-11.4-25.5-25.5c0,0,0,0,0,0
			C437.9,55.4,449.3,44,463.4,44 M463.4,42.6c-14.8,0-26.9,12-26.9,26.9s12,26.9,26.9,26.9c14.8,0,26.9-12,26.9-26.9
			C490.3,54.7,478.2,42.7,463.4,42.6L463.4,42.6z"/>
		<line class="st7" x1="463.4" y1="42.6" x2="463.4" y2="95.7"/>
		<line class="st7" x1="450.1" y1="46.2" x2="476.7" y2="92.2"/>
		<line class="st7" x1="440.4" y1="55.9" x2="486.4" y2="82.4"/>
		<line class="st7" x1="436.9" y1="69.2" x2="489.9" y2="69.2"/>
		<line class="st7" x1="440.4" y1="82.4" x2="486.4" y2="55.9"/>
		<line class="st7" x1="450.1" y1="92.2" x2="476.7" y2="46.2"/>
		<path class="st4" d="M340.4,101.8c-17.8,0-32.3-14.4-32.3-32.2s14.4-32.3,32.2-32.3c17.8,0,32.3,14.4,32.3,32.2c0,0,0,0,0,0
			C372.7,87.3,358.2,101.7,340.4,101.8z"/>
		<path class="st5" d="M340.4,38.6c17.1,0,30.9,13.8,30.9,30.9s-13.8,30.9-30.9,30.9c-17.1,0-30.9-13.8-30.9-30.9
			C309.5,52.4,323.4,38.6,340.4,38.6 M340.4,35.9c-18.6,0-33.6,15-33.6,33.6s15,33.6,33.6,33.6c18.6,0,33.6-15,33.6-33.6
			c0,0,0,0,0,0C374,51,359,35.9,340.4,35.9L340.4,35.9L340.4,35.9z"/>
		<path class="st6" d="M340.4,95.7c-14.5,0-26.2-11.7-26.2-26.2c0-14.5,11.7-26.2,26.2-26.2c14.5,0,26.2,11.7,26.2,26.2c0,0,0,0,0,0
			C366.6,83.9,354.9,95.7,340.4,95.7z"/>
		<path class="st5" d="M340.4,44c14.1,0,25.5,11.4,25.5,25.5S354.6,95,340.5,95c-14.1,0-25.5-11.4-25.5-25.5c0,0,0,0,0,0
			C314.9,55.4,326.3,44,340.4,44 M340.4,42.6c-14.8,0-26.9,12-26.9,26.9s12,26.9,26.9,26.9c14.8,0,26.9-12,26.9-26.9
			C367.3,54.7,355.3,42.7,340.4,42.6L340.4,42.6z"/>
		<line class="st7" x1="340.4" y1="42.6" x2="340.4" y2="95.7"/>
		<line class="st7" x1="327.2" y1="46.2" x2="353.7" y2="92.2"/>
		<line class="st7" x1="317.5" y1="55.9" x2="363.4" y2="82.4"/>
		<line class="st7" x1="313.9" y1="69.2" x2="367" y2="69.2"/>
		<line class="st7" x1="317.5" y1="82.4" x2="363.4" y2="55.9"/>
		<line class="st7" x1="327.2" y1="92.2" x2="353.7" y2="46.2"/>
		<line class="st8" x1="119.7" y1="36.8" x2="135.6" y2="26.7"/>
		<line class="st8" x1="135.6" y1="69.7" x2="153.1" y2="69.7"/>
		<line class="st8" x1="136.9" y1="25.9" x2="198.2" y2="26.7"/>
		<path class="st8" d="M205,38.7L186.1,5h27.6c8.8,0,8.8,12.8,0,12.8"/>
		<circle class="st8" cx="161.9" cy="69.7" r="8.8"/>
		<line class="st8" x1="198.2" y1="26.7" x2="167.2" y2="62.9"/>
		<line class="st8" x1="116.7" y1="12.4" x2="143" y2="12.4"/>
		<line class="st8" x1="161.9" y1="60.9" x2="161.9" y2="51.5"/>
		<line class="st8" x1="161.9" y1="78.4" x2="161.9" y2="87.2"/>
		<line class="st8" x1="157.8" y1="51.5" x2="165.9" y2="51.5"/>
		<line class="st8" x1="158.8" y1="87.8" x2="166.9" y2="87.8"/>
		<line class="st8" x1="129.1" y1="12.8" x2="157.6" y2="63.7"/>
		<line class="st8" x1="359.6" y1="36.8" x2="375.6" y2="26.7"/>
		<line class="st8" x1="375.6" y1="69.7" x2="393.1" y2="69.7"/>
		<line class="st8" x1="376.9" y1="25.9" x2="438.2" y2="26.7"/>
		<path class="st8" d="M444.9,38.7L426.1,5h27.6c8.8,0,8.8,12.8,0,12.8"/>
		<circle class="st8" cx="401.8" cy="69.7" r="8.8"/>
		<line class="st8" x1="438.2" y1="26.7" x2="407.2" y2="62.9"/>
		<line class="st8" x1="356.7" y1="12.4" x2="383" y2="12.4"/>
		<line class="st8" x1="401.8" y1="60.9" x2="401.8" y2="51.5"/>
		<line class="st8" x1="401.8" y1="78.4" x2="401.8" y2="87.2"/>
		<line class="st8" x1="397.8" y1="51.5" x2="405.9" y2="51.5"/>
		<line class="st8" x1="397.8" y1="87.8" x2="405.9" y2="87.8"/>
		<line class="st8" x1="369.1" y1="12.8" x2="397.6" y2="63.7"/>
		<circle class="st4" cx="284.6" cy="187.6" r="32.2"/>
		<path class="st5" d="M284.6,156.7c17.1,0,30.9,13.8,30.9,30.9c0,17.1-13.8,30.9-30.9,30.9c-17.1,0-30.9-13.8-30.9-30.9
			C253.7,170.6,267.5,156.8,284.6,156.7 M284.6,154.1c-18.6,0-33.6,15-33.6,33.6s15,33.6,33.6,33.6s33.6-15,33.6-33.6
			S303.1,154.1,284.6,154.1C284.6,154.1,284.6,154.1,284.6,154.1z"/>
		<path class="st6" d="M284.6,213.9c-14.5,0-26.2-11.7-26.2-26.2c0-14.5,11.7-26.2,26.2-26.2c14.5,0,26.2,11.7,26.2,26.2
			c0,0,0,0,0,0C310.7,202.1,299,213.8,284.6,213.9z"/>
		<path class="st5" d="M284.6,162.1c14.1,0,25.5,11.5,25.5,25.6c0,14.1-11.5,25.5-25.6,25.5c-14.1,0-25.5-11.4-25.5-25.5
			C259,173.6,270.4,162.2,284.6,162.1 M284.5,160.8c-14.8,0-26.9,12.1-26.8,26.9s12.1,26.9,26.9,26.8c14.8,0,26.8-12.1,26.8-26.9
			C311.5,172.8,299.4,160.8,284.5,160.8L284.5,160.8L284.5,160.8z"/>
		<line class="st7" x1="284.6" y1="160.8" x2="284.6" y2="213.9"/>
		<line class="st7" x1="297.8" y1="164.3" x2="271.3" y2="210.3"/>
		<line class="st7" x1="307.6" y1="174" x2="261.6" y2="200.6"/>
		<line class="st7" x1="311.1" y1="187.3" x2="258" y2="187.3"/>
		<line class="st7" x1="307.6" y1="200.6" x2="261.6" y2="174"/>
		<line class="st7" x1="297.8" y1="210.3" x2="271.3" y2="164.3"/>
		<circle class="st4" cx="407.5" cy="187.6" r="32.2"/>
		<path class="st5" d="M407.5,156.7c17.1,0,30.9,13.8,30.9,30.9c0,17.1-13.8,30.9-30.9,30.9c-17.1,0-30.9-13.8-30.9-30.9
			C376.7,170.6,390.5,156.8,407.5,156.7 M407.5,154.1c-18.6,0-33.6,15-33.6,33.6s15,33.6,33.6,33.6c18.6,0,33.6-15,33.6-33.6
			c0,0,0,0,0,0C441.1,169.1,426.1,154.1,407.5,154.1z"/>
		<path class="st6" d="M407.5,213.9c-14.5,0-26.2-11.7-26.2-26.2c0-14.5,11.7-26.2,26.2-26.2c14.5,0,26.2,11.7,26.2,26.2
			c0,0,0,0,0,0C433.7,202.1,422,213.8,407.5,213.9z"/>
		<path class="st5" d="M407.5,162.1c14.1,0,25.5,11.4,25.5,25.5s-11.4,25.5-25.5,25.5c-14.1,0-25.5-11.4-25.5-25.5
			C382,173.6,393.4,162.2,407.5,162.1 M407.5,160.8c-14.8,0-26.9,12-26.9,26.9c0,14.8,12,26.9,26.9,26.9c14.8,0,26.9-12,26.9-26.9
			c0,0,0,0,0,0C434.4,172.8,422.4,160.8,407.5,160.8z"/>
		<line class="st7" x1="420.8" y1="164.3" x2="394.3" y2="210.3"/>
		<line class="st7" x1="430.5" y1="174" x2="384.5" y2="200.6"/>
		<line class="st7" x1="434.1" y1="187.3" x2="381" y2="187.3"/>
		<line class="st7" x1="407.5" y1="213.9" x2="407.5" y2="160.8"/>
		<line class="st7" x1="430.5" y1="200.6" x2="384.5" y2="174"/>
		<line class="st7" x1="420.8" y1="210.3" x2="394.3" y2="164.3"/>
		<path class="st4" d="M33.6,219.9c-17.8,0-32.2-14.4-32.2-32.3s14.4-32.2,32.3-32.2c17.8,0,32.2,14.4,32.2,32.3c0,0,0,0,0,0
			C65.8,205.5,51.4,219.9,33.6,219.9z"/>
		<path class="st5" d="M33.6,156.7c17.1,0,30.9,13.8,30.9,30.9c0,17.1-13.8,30.9-30.9,30.9c-17.1,0-30.9-13.8-30.9-30.9
			C2.7,170.6,16.5,156.8,33.6,156.7 M33.6,154C15,154,0,169.1,0,187.6s15,33.6,33.6,33.6c18.5,0,33.6-15,33.6-33.6
			C67.2,169.1,52.2,154.1,33.6,154L33.6,154z"/>
		<path class="st6" d="M33.6,213.9c-14.5,0-26.2-11.7-26.2-26.2s11.7-26.2,26.2-26.2c14.5,0,26.2,11.7,26.2,26.2c0,0,0,0,0,0
			C59.8,202.1,48,213.8,33.6,213.9z"/>
		<path class="st5" d="M33.6,162.1c14.1,0,25.5,11.4,25.5,25.5s-11.4,25.5-25.5,25.5c-14.1,0-25.5-11.4-25.5-25.5
			C8.1,173.6,19.5,162.1,33.6,162.1 M33.6,160.8c-14.8,0-26.9,12-26.9,26.9c0,14.8,12,26.9,26.9,26.9c14.8,0,26.9-12,26.9-26.8
			C60.5,172.8,48.5,160.8,33.6,160.8C33.6,160.8,33.6,160.8,33.6,160.8L33.6,160.8z"/>
		<line class="st7" x1="33.6" y1="162.8" x2="33.6" y2="215.9"/>
		<line class="st7" x1="46.9" y1="164.3" x2="20.3" y2="210.3"/>
		<line class="st7" x1="56.6" y1="174" x2="10.6" y2="200.6"/>
		<line class="st7" x1="60.1" y1="187.3" x2="7.1" y2="187.3"/>
		<line class="st7" x1="56.6" y1="200.6" x2="10.6" y2="174"/>
		<line class="st7" x1="46.9" y1="210.3" x2="20.3" y2="164.3"/>
		<path class="st4" d="M156.6,219.9c-17.8,0-32.2-14.4-32.2-32.3s14.4-32.2,32.3-32.2c17.8,0,32.2,14.4,32.2,32.3c0,0,0,0,0,0
			C188.8,205.5,174.3,219.9,156.6,219.9z"/>
		<path class="st5" d="M156.6,156.7c17.1,0,30.9,13.8,30.9,30.9c0,17.1-13.8,30.9-30.9,30.9c-17.1,0-30.9-13.8-30.9-30.9
			C125.7,170.6,139.5,156.8,156.6,156.7 M156.6,154.1c-18.6,0-33.6,15-33.6,33.6s15,33.6,33.6,33.6c18.6,0,33.6-15,33.6-33.6
			S175.1,154.1,156.6,154.1L156.6,154.1z"/>
		<path class="st6" d="M156.6,213.9c-14.5,0-26.2-11.7-26.2-26.2c0-14.5,11.7-26.2,26.2-26.2c14.5,0,26.2,11.7,26.2,26.2
			c0,0,0,0,0,0C182.7,202.1,171,213.8,156.6,213.9z"/>
		<path class="st5" d="M156.6,162.1c14.1,0,25.5,11.5,25.5,25.6s-11.5,25.5-25.6,25.5c-14.1,0-25.5-11.4-25.5-25.5
			C131,173.6,142.4,162.2,156.6,162.1 M156.5,160.8c-14.8,0-26.9,12.1-26.8,26.9c0,14.8,12.1,26.9,26.9,26.8
			c14.8,0,26.8-12,26.8-26.9C183.4,172.8,171.4,160.8,156.5,160.8L156.5,160.8z"/>
		<line class="st7" x1="156.6" y1="160.8" x2="156.6" y2="213.9"/>
		<line class="st7" x1="169.8" y1="164.3" x2="143.3" y2="210.3"/>
		<line class="st7" x1="179.5" y1="174" x2="133.6" y2="200.6"/>
		<line class="st7" x1="183.1" y1="187.3" x2="130" y2="187.3"/>
		<line class="st7" x1="179.5" y1="200.6" x2="133.6" y2="174"/>
		<line class="st7" x1="169.8" y1="210.3" x2="143.3" y2="164.3"/>
		<line class="st8" x1="372.4" y1="144.8" x2="388.3" y2="154.9"/>
		<line class="st8" x1="354.9" y1="187.8" x2="372.4" y2="187.8"/>
		<line class="st8" x1="309.8" y1="144.8" x2="371.1" y2="144"/>
		<path class="st8" d="M294.3,135.9c-8.8,0-8.8-12.8,0-12.8h27.6L303,156.8"/>
		<circle class="st8" cx="346.1" cy="187.8" r="8.8"/>
		<line class="st8" x1="340.8" y1="181.1" x2="309.8" y2="144.8"/>
		<line class="st8" x1="365" y1="130.5" x2="391.3" y2="130.5"/>
		<line class="st8" x1="346.1" y1="169.6" x2="346.1" y2="179"/>
		<line class="st8" x1="346.1" y1="205.3" x2="346.1" y2="196.6"/>
		<line class="st8" x1="342.1" y1="169.6" x2="350.2" y2="169.6"/>
		<line class="st8" x1="342.1" y1="205.9" x2="350.2" y2="205.9"/>
		<line class="st8" x1="378.9" y1="131" x2="350.4" y2="181.8"/>
		<line class="st8" x1="121.4" y1="144.8" x2="137.4" y2="154.9"/>
		<line class="st8" x1="103.9" y1="187.8" x2="121.4" y2="187.8"/>
		<line class="st8" x1="58.8" y1="144.8" x2="120.1" y2="144"/>
		<path class="st8" d="M43.3,135.9c-8.8,0-8.8-12.8,0-12.8h27.6l-18.9,33.7"/>
		<circle class="st8" cx="95.2" cy="187.8" r="8.8"/>
		<line class="st8" x1="89.8" y1="181.1" x2="58.8" y2="144.8"/>
		<line class="st8" x1="114" y1="130.5" x2="140.3" y2="130.5"/>
		<line class="st8" x1="95.2" y1="169.6" x2="95.2" y2="179"/>
		<line class="st8" x1="95.2" y1="205.3" x2="95.2" y2="196.6"/>
		<line class="st8" x1="91.1" y1="169.6" x2="99.2" y2="169.6"/>
		<line class="st8" x1="91.1" y1="205.9" x2="99.2" y2="205.9"/>
		<line class="st8" x1="127.9" y1="131" x2="99.4" y2="181.8"/>
	</g>
</g>
</svg>
