<?xml version="1.0" encoding="UTF-8"?>
<svg width="24px" height="21px" viewBox="0 0 24 21" version="1.1" xmlns="http://www.w3.org/2000/svg" xmlns:xlink="http://www.w3.org/1999/xlink">
    <!-- Generator: Sketch 50.2 (55047) - http://www.bohemiancoding.com/sketch -->
    <title>shaka</title>
    <desc>Created with Sketch.</desc>
    <defs></defs>
    <g id="Layout" stroke="none" stroke-width="1" fill="none" fill-rule="evenodd">
        <g id="Desktop" transform="translate(-110.000000, -364.000000)" stroke="#FFFFFF">
            <g id="Header" transform="translate(-54.000000, 0.000000)">
                <g id="shaka" transform="translate(174.042241, 373.011284) rotate(20.000000) translate(-174.042241, -373.011284) translate(164.042241, 361.811284)">
                    <g>
                        <path d="M16.3971744,5.35589906 C16.3971744,5.52214246 16.3971744,4.52299101 16.3971744,2.35844472 C16.3971744,-0.888374724 19.8589061,-0.15896442 19.8589061,1.06783396 C19.8589061,1.88569954 19.8589061,7.08049099 19.8589061,16.6522083 C19.2458642,18.6336319 18.3309619,19.9159467 17.1141994,20.4991527 C15.2890556,21.3739617 12.1362927,22.5094922 10.0576941,20.4991527 C7.97909557,18.4888132 5.82469933,14.7472156 4.39511969,13.6079769 C2.96554005,12.4687383 -0.156130539,11.8740325 0.529798852,10.6778334 C1.21572824,9.48163441 4.14921301,9.4264598 4.92093299,9.92855455 C5.69265298,10.4306493 10.8385071,14.4897803 12.1862497,14.4897803" id="Path-2"></path>
                        <path d="M6.60511697,11.0041139 C6.60511697,8.61665693 6.60511697,6.97820864 6.60511697,6.08876898 C6.60511697,4.75460949 9.86753157,3.7563196 9.86753157,5.42673698 C9.86753157,7.09715437 9.86753157,8.72097712 9.86753157,9.86254549 C9.86753157,10.6235911 9.86753157,11.7843919 9.86753157,13.344948" id="Path-3"></path>
                        <path d="M9.6,4.6544525 C11.7957647,3.50278864 12.8936471,3.72152452 12.8936471,5.31066017 C12.8936471,7.69436364 12.8936471,8.69964272 12.8936471,10.5700287 C12.8936471,12.4404147 10.1446629,12.2641035 10.1446629,11.3590028" id="Path-4"></path>
                        <path d="M12.8,4.55766149 C14.9957647,3.55956371 16.0936471,3.74913274 16.0936471,5.12636858 C16.0936471,7.19222235 16.0936471,8.0634547 16.0936471,9.68443818 C16.0936471,11.3054217 12.8,11.2532621 12.8,10.4688502" id="Path-4-Copy"></path>
                    </g>
                </g>
            </g>
        </g>
    </g>
</svg>