<?xml version="1.0" encoding="UTF-8"?>
<svg width="71px" height="47px" viewBox="0 0 71 47" version="1.1" xmlns="http://www.w3.org/2000/svg" xmlns:xlink="http://www.w3.org/1999/xlink">
    <!-- Generator: Sketch 51.2 (57519) - http://www.bohemiancoding.com/sketch -->
    <title>adidas-seeklogo.com</title>
    <desc>Created with Sketch.</desc>
    <defs>
        <polygon id="path-1" points="0.0124137931 0.191992188 23.8651034 0.191992188 23.8651034 25 0.0124137931 25"></polygon>
    </defs>
    <g id="UI-Design" stroke="none" stroke-width="1" fill="none" fill-rule="evenodd">
        <g id="About" transform="translate(-191.000000, -1231.000000)">
            <g id="adidas-seeklogo.com" transform="translate(191.000000, 1231.000000)">
                <path d="M70.6482737,38.7706982 L67.560523,38.7706982 C67.4644349,38.2833136 67.3156277,37.9400237 67.1125097,37.7470769 C66.782269,37.432568 66.2188704,37.2706746 65.4406164,37.2706746 C64.6739009,37.2706746 64.1419348,37.3916686 63.8443203,37.6353609 C63.6201147,37.8180828 63.5027399,38.0710533 63.5027399,38.3853728 C63.5027399,38.8305325 64.1532744,39.1859408 65.4406164,39.4597396 C66.9107844,39.7632663 67.9653663,40.0270296 68.6143092,40.2396686 C68.784801,40.3006391 68.9336082,40.3513846 69.0404391,40.4015621 C70.3510571,40.9896805 71,41.8826509 71,43.0780118 C71,44.5373254 70.361203,45.6016568 69.0937551,46.2702485 C68.9336082,46.3520473 68.784801,46.4226746 68.6143092,46.4936805 C67.7948746,46.8284497 66.8365797,47 65.761109,47 C64.1532744,47 62.8535981,46.7262012 61.8634728,46.1890178 C61.240591,45.844213 60.775071,45.4111716 60.4651222,44.8889467 C60.1549744,44.3669112 60,43.7573964 60,43.0575621 L63.236558,43.0575621 C63.236558,43.5847101 63.439477,44.0007101 63.8331796,44.2839763 C64.2278769,44.5784142 64.8985043,44.7306509 65.8454596,44.7306509 C66.559257,44.7306509 67.0910242,44.588071 67.4431483,44.3046154 C67.7206699,44.0813728 67.8475937,43.8376805 67.8475937,43.5544142 C67.8475937,43.0780118 67.2099904,42.7036686 65.9413488,42.439716 C64.0464435,42.0543905 62.8535981,41.740071 62.3640063,41.5166391 C61.0653247,40.9393136 60.4263288,40.0480473 60.4263288,38.8102722 C60.4263288,37.8180828 60.7565695,36.9766154 61.4375418,36.2877633 C62.2898016,35.4260355 63.5669976,35 65.2605755,35 C66.6551462,35 67.773389,35.1929467 68.6147071,35.5676686 C68.6889118,35.5975858 68.7533684,35.6286391 68.8174272,35.6697278 C69.4239958,35.9829112 69.8817572,36.3992899 70.188324,36.9167811 C70.494493,37.432568 70.6482737,38.0517396 70.6482737,38.7706982" id="Fill-1" fill="#2F3236"></path>
                <polyline id="Fill-2" fill="#2F3236" points="52.1709084 15.7399269 61 30 46.8170036 30 38.3866776 16.3757636 32 6.06644639 38.3866776 2.34509799 42.4076809 0 52.1709084 15.7399269"></polyline>
                <path d="M55.2397035,41.6261362 L55.2397035,40.3738638 C54.9466014,38.8585312 53.6023355,37.7064633 52.0051935,37.7064633 C51.9946176,37.7064633 51.9849861,37.7064633 51.9742214,37.7064633 C50.1653735,37.7174084 48.6992965,39.1921686 48.6992965,40.9992452 C48.6992965,42.8078314 50.1653735,44.2825916 51.9742214,44.3027835 C51.9849861,44.3027835 51.9946176,44.3027835 52.0051935,44.3027835 C53.6023355,44.3027835 54.9466014,43.1414688 55.2397035,41.6261362 Z M58,40.9992452 L58,46.6663626 L55.2397035,46.6663626 L55.2397035,46.039849 C54.3095954,46.6461708 53.1974316,47 52.0051935,47 C51.9946176,47 51.9849861,47 51.9742214,47 C48.6789002,46.9796194 46,44.292027 46,40.9992452 C46,37.7068407 48.6789002,35.0201919 51.9742214,35 C51.9849861,35 51.9946176,35 52.0051935,35 C53.1974316,35 54.3095954,35.3542066 55.2397035,35.9590187 L55.2397035,35.3026891 L58,35.3026891 L58,40.9992452 Z" id="Fill-3" fill="#2F3236"></path>
                <path d="M41.2405326,41.1421657 L41.2405326,39.7771136 C40.9472094,38.1253101 39.6016621,36.8694868 38.0047219,36.8694868 C37.9952781,36.8694868 37.9845122,36.8694868 37.9748796,36.8694868 C36.1648881,36.8814177 34.699405,38.4889948 34.699405,40.4588168 C34.699405,42.4302845 36.1648881,44.0378616 37.9748796,44.059872 C37.9845122,44.059872 37.9952781,44.059872 38.0047219,44.059872 C39.6016621,44.059872 40.9472094,42.7939692 41.2405326,41.1421657 Z M44,40.4588168 L44,46.6363152 L41.2405326,46.6363152 L41.2405326,45.9533778 C40.299745,46.6143049 39.1982246,47 38.0047219,47 C37.9952781,47 37.9845122,47 37.9748796,47 C34.6791954,46.977784 32,44.0481468 32,40.4588168 C32,36.8698982 34.6791954,33.9412896 37.9748796,33.9192793 C37.9845122,33.9192793 37.9952781,33.9192793 38.0047219,33.9192793 C39.1984134,33.9192793 40.299745,34.3053858 41.2405326,34.9646673 L41.2405326,30 L44,30 L44,40.4588168 Z" id="Fill-4" fill="#2F3236"></path>
                <polyline id="Fill-5" fill="#2F3236" points="38.5976776 24.1956612 42 30 28.0718785 30 20.3377842 16.8617434 20 16.2894108 20.3377842 16.0850639 30.2391464 10 38.5976776 24.1956612"></polyline>
                <polygon id="Fill-6" fill="#2F3236" points="28 47 31 47 31 35 28 35"></polygon>
                <polygon id="Fill-7" fill="#2F3236" points="28 33 31 33 31 30 28 30"></polygon>
                <path d="M23.2427459,41.1421657 L23.2427459,39.7771136 C22.9498467,38.1253101 21.606511,36.8694868 20.0000944,36.8694868 C19.9904695,36.8694868 19.9797122,36.8694868 19.9700873,36.8694868 C18.1615475,36.8814177 16.6974286,38.4889948 16.6974286,40.4588168 C16.6974286,42.4302845 18.1615475,44.0378616 19.9700873,44.059872 C19.9797122,44.059872 19.9904695,44.059872 20.0000944,44.059872 C21.606511,44.059872 22.9498467,42.7939692 23.2427459,41.1421657 Z M26,40.4588168 L26,46.6363152 L23.2427459,46.6363152 L23.2427459,45.9533778 C22.3038452,46.6143049 21.1926398,47 20.0000944,47 C19.9904695,47 19.9797122,47 19.9700873,47 C16.6770465,46.977784 14,44.0481468 14,40.4588168 C14,36.8698982 16.6770465,33.9412896 19.9700873,33.9192793 C19.9797122,33.9192793 19.9904695,33.9192793 20.0000944,33.9192793 C21.1926398,33.9192793 22.3038452,34.3053858 23.2427459,34.9646673 L23.2427459,30 L26,30 L26,40.4588168 Z" id="Fill-8" fill="#2F3236"></path>
                <g id="Group-12" transform="translate(0.000000, 22.000000)">
                    <mask id="mask-2" fill="white">
                        <use xlink:href="#path-1"></use>
                    </mask>
                    <g id="Clip-10"></g>
                    <polyline id="Fill-9" fill="#2F3236" mask="url(#mask-2)" points="20.8752414 4.15351562 23.8651034 8.85878906 9.2582069 8.85878906 7.61896552 6.27636719 18.3496552 0.191992188 20.8752414 4.15351562"></polyline>
                    <path d="M10.1222069,19.4380859 L10.1222069,18.1419922 C9.80110345,16.5736328 8.3282069,15.38125 6.56731034,15.38125 C6.55551724,15.38125 6.54496552,15.38125 6.53317241,15.38125 C4.56206897,15.3925781 2.95696552,16.9189453 2.95696552,18.7892578 C2.95696552,20.6611328 4.56206897,22.1875 6.53317241,22.2083984 C6.54496552,22.2083984 6.55551724,22.2083984 6.56731034,22.2083984 C8.3282069,22.2083984 9.80110345,21.0064453 10.1222069,19.4380859 Z M13.1449655,18.7892578 L13.1449655,24.6546875 L10.1222069,24.6546875 L10.1222069,24.00625 C9.09144828,24.6337891 7.87324138,25 6.56731034,25 C6.55551724,25 6.54496552,25 6.53317241,25 C2.93482759,24.9789063 0,22.1972656 0,18.7892578 C0,15.3816406 2.93482759,12.6009766 6.53317241,12.5800781 C6.54496552,12.5800781 6.55551724,12.5800781 6.56731034,12.5800781 C7.87324138,12.5800781 9.09144828,12.9466797 10.1222069,13.5726563 L10.1222069,12.8933594 L13.1449655,12.8933594 L13.1449655,18.7892578 Z" id="Fill-11" fill="#2F3236" mask="url(#mask-2)"></path>
                </g>
            </g>
        </g>
    </g>
</svg>