<?xml version="1.0" encoding="UTF-8"?>
<svg width="158px" height="47px" viewBox="0 0 158 47" version="1.1" xmlns="http://www.w3.org/2000/svg" xmlns:xlink="http://www.w3.org/1999/xlink">
    <!-- Generator: Sketch 51.2 (57519) - http://www.bohemiancoding.com/sketch -->
    <title>runtastic</title>
    <desc>Created with Sketch.</desc>
    <defs></defs>
    <g id="UI-Design" stroke="none" stroke-width="1" fill="none" fill-rule="evenodd">
        <g id="About" transform="translate(-411.000000, -1231.000000)" fill="#2F3236">
            <path d="M432.968067,1260.62072 L427.879064,1265.62481 C426.512607,1266.96876 424.29463,1266.95 422.950339,1265.5832 L422.706853,1265.33562 L420.34633,1267.65727 L420.711901,1268.02898 C423.265439,1270.62583 427.479733,1270.66129 430.07658,1268.10776 L435.289373,1262.98158 L432.968067,1260.62072 Z M420.350422,1262.9393 L415.375319,1257.87928 C414.031369,1256.51248 414.050125,1254.29484 415.416923,1252.95089 L415.572427,1252.79812 L413.250781,1250.43726 L412.971146,1250.71212 C410.373958,1253.26565 410.338833,1257.47961 412.892371,1260.07679 L417.989559,1265.2606 L420.350422,1262.9393 Z M430.567304,1247.97784 L435.624252,1253.12072 C436.968542,1254.48752 436.949786,1256.7055 435.582989,1258.04945 L435.364737,1258.26429 L437.686043,1260.62515 L438.028425,1260.28823 C440.625272,1257.73469 440.661079,1253.52073 438.107541,1250.92355 L432.928168,1245.65653 L430.567304,1247.97784 Z M417.968757,1250.44135 L423.120507,1245.37553 C424.487305,1244.03158 426.705282,1244.05034 428.049232,1245.4168 L428.210874,1245.58117 L430.571738,1243.25986 L430.288011,1242.97102 C427.734473,1240.37417 423.520179,1240.33871 420.923332,1242.89224 L415.64711,1248.08048 L417.968757,1250.44135 Z M448.690334,1256.66935 C448.360911,1258.88699 447.416634,1265.71791 447.416634,1265.71791 L451.149411,1265.71791 L452.05413,1259.28427 C452.403673,1256.89169 452.519619,1252.36162 458.678735,1252.80562 L459.204583,1249.09467 C451.127927,1248.38331 449.090689,1253.97429 448.690334,1256.66935 Z M513.782376,1261.01732 C514.731768,1259.864 515.213285,1258.43173 515.213285,1256.76006 C515.213285,1253.91222 513.814432,1252.27909 511.374111,1252.27909 C510.040051,1252.27909 508.909919,1252.86018 507.919263,1254.05579 C506.933382,1255.2456 506.454253,1256.69356 506.454253,1258.4822 C506.454253,1261.06063 507.842193,1262.72684 509.989921,1262.72684 C511.578039,1262.72684 512.854127,1262.15189 513.782376,1261.01732 Z M511.239068,1248.88222 C513.304611,1248.88222 514.954453,1249.76409 515.996943,1250.88433 L516.218945,1249.28769 L519.78326,1249.28769 L517.469797,1265.71859 L513.904119,1265.71859 L514.077697,1264.40942 C512.796495,1265.36802 511.225086,1266.08996 509.246844,1266.08996 C507.357608,1266.08996 505.836329,1265.38951 504.597413,1263.94939 C503.379639,1262.49461 502.787633,1260.70631 502.787633,1258.4822 C502.787633,1255.81885 503.600619,1253.53676 505.204765,1251.69868 C506.806524,1249.8299 508.836941,1248.88222 511.239068,1248.88222 Z M560.378656,1262.72173 C558.078152,1262.72173 556.471619,1260.89319 556.471619,1258.27452 C556.471619,1256.58955 556.999173,1255.1566 558.039958,1254.01521 C559.108025,1252.84382 560.33671,1252.27432 561.796947,1252.27432 C563.506126,1252.27432 564.482118,1253.14084 565.487779,1254.54379 L568.250361,1251.95785 C566.809221,1249.85036 564.808131,1248.87744 561.864128,1248.87744 C559.337529,1248.87744 557.147516,1249.8033 555.354787,1251.62911 C553.550464,1253.43309 552.635855,1255.70325 552.635855,1258.3758 C552.635855,1260.67733 553.315503,1262.50893 554.713674,1263.97531 C556.07979,1265.37484 557.838417,1266.08484 559.939425,1266.08484 C563.042343,1266.08484 565.549844,1264.95744 567.392702,1262.73434 L565.073443,1260.25105 C563.501693,1262.0281 562.181274,1262.72173 560.378656,1262.72173 Z M549.27888,1265.71859 L551.592001,1249.28769 L547.859224,1249.28769 L545.545421,1265.71859 L549.27888,1265.71859 Z M550.305342,1242.16963 C549.667639,1242.16963 549.070518,1242.4155 548.624467,1242.86189 L548.623785,1242.86258 C548.183191,1243.28714 547.937658,1243.86585 547.931861,1244.49196 C547.926404,1245.13546 548.172278,1245.73872 548.624467,1246.19091 C549.070518,1246.6373 549.667639,1246.88317 550.305342,1246.88317 C550.943727,1246.88317 551.540848,1246.6373 551.986899,1246.19091 C552.439088,1245.73872 552.684962,1245.13546 552.678823,1244.49196 C552.673367,1243.86585 552.427834,1243.28714 551.987581,1242.86258 C551.540848,1242.4155 550.943727,1242.16963 550.305342,1242.16963 Z M541.893124,1244.66144 L538.193085,1244.66144 L536.107082,1259.43568 C535.797097,1261.75358 536.082528,1263.37955 536.981109,1264.40601 C537.773634,1265.31175 539.037444,1265.75201 540.844837,1265.75201 C541.544945,1265.75201 542.232437,1265.73052 542.887872,1265.6879 L543.344835,1262.42299 L542.162187,1262.42299 C541.046378,1262.42299 540.448574,1262.26101 540.099032,1261.86407 C539.716069,1261.42995 539.634566,1260.72575 539.808485,1259.35316 L540.761287,1252.6167 L544.711633,1252.6167 L545.168597,1249.28769 L541.217228,1249.28769 L541.893124,1244.66144 Z M531.61861,1254.04181 L534.235578,1251.58819 C532.779093,1249.79273 530.726509,1248.88222 528.134435,1248.88222 C526.281347,1248.88222 524.780188,1249.3535 523.544,1250.32233 C522.309176,1251.2898 521.708644,1252.51235 521.708644,1254.05886 C521.708644,1256.46883 523.046455,1258.06343 525.684907,1258.79832 L528.149781,1259.47354 C529.405407,1259.85718 530.015146,1260.39428 530.015146,1261.11622 C530.015146,1262.29682 529.052795,1262.89564 527.155374,1262.89564 C525.32718,1262.89564 523.814085,1262.13211 522.656331,1260.62651 L520.074147,1262.94714 C521.648966,1265.03246 523.872058,1266.08996 526.682383,1266.08996 C531.000005,1266.08996 533.682107,1264.0933 533.682107,1260.87955 C533.682107,1258.48527 532.258359,1256.77779 529.672765,1256.07257 L526.836182,1255.29607 C525.844503,1255.02258 525.341844,1254.50389 525.341844,1253.75501 C525.341844,1252.79812 526.38297,1252.07653 527.763067,1252.07653 C529.266272,1252.07653 530.563161,1252.73776 531.61861,1254.04181 Z M499.635268,1244.66144 L495.935911,1244.66144 L493.849908,1259.43568 C493.539582,1261.75358 493.825013,1263.37955 494.723935,1264.40601 C495.516119,1265.31175 496.78027,1265.75201 498.587322,1265.75201 C499.287771,1265.75201 499.974922,1265.73052 500.630357,1265.6879 L501.087661,1262.42299 L499.904672,1262.42299 C498.788863,1262.42299 498.191059,1262.26101 497.841517,1261.86407 C497.458895,1261.42995 497.377051,1260.72575 497.551311,1259.35316 L498.503772,1252.6167 L502.454459,1252.6167 L502.911082,1249.28769 L498.960054,1249.28769 L499.635268,1244.66144 Z M486.447783,1248.88222 C484.724963,1248.88222 483.302239,1249.45137 482.098106,1250.62209 L481.975681,1250.74076 L482.193932,1249.28769 L478.528677,1249.28769 L476.215215,1265.71859 L479.948332,1265.71859 L481.224078,1256.61717 C481.605677,1253.87949 483.217666,1252.24533 485.536244,1252.24533 C487.273387,1252.24533 488.396016,1253.43446 488.396016,1255.27425 C488.396016,1255.39497 488.379306,1255.58253 488.357822,1255.82022 C488.348614,1255.92286 488.338725,1256.0354 488.328153,1256.15714 L486.986591,1265.71859 L490.719709,1265.71859 C491.243511,1261.92613 491.610446,1259.31019 491.812328,1257.87075 C491.928956,1257.04038 491.993068,1256.58273 491.995455,1256.55408 C492.106968,1255.77179 492.130498,1255.20638 492.130498,1254.86912 C492.130498,1251.23251 489.899903,1248.88222 486.447783,1248.88222 Z M466.477121,1262.7606 C468.600296,1262.7606 470.161814,1261.15032 470.551938,1258.55824 L471.862127,1249.28769 L475.595245,1249.28769 L473.281783,1265.71859 L469.614822,1265.71859 L469.796585,1264.26619 L469.678252,1264.38453 C468.546074,1265.51602 467.128464,1266.08996 465.463958,1266.08996 C462.155748,1266.08996 460.01791,1263.75296 460.01791,1260.13681 C460.01791,1259.85582 460.041099,1259.3419 460.15193,1258.49038 L461.462119,1249.28769 L465.161817,1249.28769 L463.786494,1259.1124 C463.752051,1259.287 463.752051,1259.55845 463.752051,1259.93425 C463.752051,1261.73039 464.745435,1262.7606 466.477121,1262.7606 Z" id="runtastic"></path>
        </g>
    </g>
</svg>