<svg width="170" height="14" viewBox="0 0 170 14" fill="none" xmlns="http://www.w3.org/2000/svg">
<path d="M5.40762 13.7424H0V0.257568H5.2359C8.5559 0.257568 9.86908 1.71277 9.86908 3.81026C9.86908 5.39592 8.72762 6.48648 7.26291 6.74407C8.96332 7.02173 10.2563 8.11229 10.2563 10.0392C10.2563 12.3775 8.5761 13.7424 5.40762 13.7424ZM1.31318 6.20882H5.4514C7.60636 6.20882 8.53233 5.30894 8.53233 3.81026C8.53233 2.31157 7.60636 1.39162 5.4514 1.39162H1.31318V6.20882ZM1.31318 7.29938V12.6083H5.51537C7.73431 12.6083 8.94312 11.6449 8.94312 9.97561C8.94312 8.30631 7.73431 7.29938 5.51537 7.29938H1.31318Z" fill="#222222"/>
<path d="M26.3512 13.7424H16.9569V0.257568H26.1559V1.39162H18.2701V6.18541H24.5801V7.3228H18.2701V12.6083H26.3512V13.7424Z" fill="#222222"/>
<path d="M37.1092 13.7424V1.39162H32.0888V0.257568H43.5539V1.39162H38.4662V13.7424H37.1092Z" fill="#222222"/>
<path d="M54.2109 13.7424V1.39162H49.2006V0.257568H60.6489V1.39162H55.5645V13.7424H54.2109Z" fill="#222222"/>
<path d="M76.7707 0.257568H78.2152L72.8783 8.41336V13.7424H71.5853V8.41336L66.2619 0.257568H67.7501L72.316 7.17226L76.7707 0.257568Z" fill="#222222"/>
<path d="M102.698 13.7424H93.3033V0.257568H102.502V1.39162H94.6165V6.18541H100.913V7.3228H94.6165V12.6083H102.698V13.7424Z" fill="#222222"/>
<path d="M114.294 0C118.085 0 120.284 2.31159 120.52 5.80072L119.207 5.86428C119.079 3.12449 117.287 1.13405 114.294 1.13405C111.301 1.13405 109.122 3.38208 109.122 7.00167C109.122 10.6213 111.321 12.8659 114.294 12.8659C117.267 12.8659 119.079 10.8588 119.207 8.13572L120.52 8.19928C120.284 11.6884 118.085 14 114.294 14C110.59 14 107.701 11.1532 107.701 7.00167C107.701 2.85018 110.587 0 114.294 0Z" fill="#222222"/>
<path d="M136.322 13.7424L130.224 7.05183L128.524 8.72447V13.7424H127.177V0.257568H128.524V7.2559L135.595 0.257568H137.255L131.238 6.22889L138.005 13.7424H136.322Z" fill="#222222"/>
<path d="M153.306 13.7424H143.908V0.257568H153.11V1.39162H145.225V6.18541H151.538V7.3228H145.225V12.6083H153.306V13.7424Z" fill="#222222"/>
<path d="M168.532 13.7424C168.276 13.3811 168.081 12.3541 167.973 10.7049C167.885 9.22627 167.175 8.04873 165.151 8.04873H160.926V13.7357H159.579V0.257568H164.72C168.145 0.257568 169.771 1.81981 169.771 4.15482C169.771 6.25231 168.303 7.29939 166.646 7.5001C168.37 7.83463 169.165 8.89174 169.296 10.4741C169.468 12.4444 169.532 13.2573 169.987 13.7491L168.532 13.7424ZM164.764 6.93475C167.283 6.93475 168.384 5.95124 168.384 4.15482C168.384 2.48218 167.283 1.39162 164.764 1.39162H160.926V6.93475H164.764Z" fill="#222222"/>
</svg>
