<?xml version="1.0" encoding="UTF-8"?>
<svg width="53px" height="111px" viewBox="0 0 53 111" version="1.1" xmlns="http://www.w3.org/2000/svg" xmlns:xlink="http://www.w3.org/1999/xlink">
    <!-- Generator: Sketch 52.6 (67491) - http://www.bohemiancoding.com/sketch -->
    <title>Flower</title>
    <desc>Created with Sketch.</desc>
    <defs>
        <polygon id="path-1" points="0.44715 0.4065 3.55065 0.4065 3.55065 3.5102 0.44715 3.5102"></polygon>
        <polygon id="path-3" points="0 0.16738365 52.9998378 0.16738365 52.9998378 29.7272182 0 29.7272182"></polygon>
    </defs>
    <g id="Design" stroke="none" stroke-width="1" fill="none" fill-rule="evenodd">
        <g id="Landingpage" transform="translate(-866.000000, -524.000000)">
            <g id="Header" transform="translate(25.000000, 24.000000)">
                <g id="Flower" transform="translate(841.000000, 500.000000)">
                    <path d="M26.5,31 L26.5,111" id="Stroke-1" stroke="#464F66" stroke-width="3"></path>
                    <path d="M17.8689799,51.0874355 C19.9941134,53.2126322 23.0823048,61.8930131 23.9739472,64.487675 C24.0868466,64.8158806 23.8158881,65.0868471 23.4871672,64.9739444 C20.8931074,64.0828006 12.2129844,60.9939924 10.0878509,58.8687957 C7.58095993,56.3618303 7.29057227,52.5877288 9.43933593,50.4394265 C11.5880996,48.290599 15.3620889,48.5809952 17.8689799,51.0874355" id="Fill-3" fill="#464F66"></path>
                    <path d="M17.8689799,72.0876982 C19.9941134,74.2128547 23.0823048,82.8930717 23.9739472,85.4876847 C24.0868466,85.8158841 23.8158881,86.0868455 23.4871672,85.9739449 C20.8931074,85.0828179 12.2129844,81.994068 10.0878509,79.8689114 C7.58095993,77.3619934 7.29057227,73.5879631 9.43933593,71.4391762 C11.5880996,69.2903893 15.3620889,69.5813052 17.8689799,72.0876982" id="Fill-5" fill="#464F66"></path>
                    <path d="M17.8689799,93.0878509 C19.9941134,95.2124593 23.0823048,103.893107 23.9739472,106.487167 C24.0868466,106.815888 23.8158881,107.086847 23.4871672,106.973947 C20.8931074,106.08283 12.2129844,102.994113 10.0878509,100.86898 C7.58095993,98.3620889 7.29057227,94.5880996 9.43933593,92.4393359 C11.5880996,90.2905723 15.3620889,90.5809599 17.8689799,93.0878509" id="Fill-7" fill="#464F66"></path>
                    <path d="M36.1310201,51.0874355 C34.0058866,53.2126322 30.9171701,61.8930131 30.0260528,64.487675 C29.9131534,64.8158806 30.1841119,65.0868471 30.5128328,64.9739444 C33.1068926,64.0828006 41.7870156,60.9939924 43.9121491,58.8687957 C46.4190401,56.3618303 46.7094277,52.5877288 44.5606641,50.4394265 C42.4119004,48.290599 38.6379111,48.5809952 36.1310201,51.0874355" id="Fill-9" fill="#464F66"></path>
                    <path d="M36.1310201,72.0876982 C34.0058866,74.2128547 30.9171701,82.8930717 30.0260528,85.4876847 C29.9131534,85.8158841 30.1841119,86.0868455 30.5128328,85.9739449 C33.1068926,85.0828179 41.7870156,81.994068 43.9121491,79.8689114 C46.4190401,77.3619934 46.7094277,73.5879631 44.5606641,71.4391762 C42.4119004,69.2903893 38.6379111,69.5813052 36.1310201,72.0876982" id="Fill-11" fill="#464F66"></path>
                    <path d="M36.1310201,93.0878509 C34.0058866,95.2124593 30.9171701,103.893107 30.0260528,106.487167 C29.9131534,106.815888 30.1841119,107.086847 30.5128328,106.973947 C33.1068926,106.08283 41.7870156,102.994113 43.9121491,100.86898 C46.4190401,98.3620889 46.7094277,94.5880996 44.5606641,92.4393359 C42.4119004,90.2905723 38.6379111,90.5809599 36.1310201,93.0878509" id="Fill-13" fill="#464F66"></path>
                    <path d="M25.3576364,41 C25.3576364,41 24.75,46.2210275 21,49.8052569 C22.5,50.4026284 24.75,48.6105137 24.75,48.6105137 L27,51 L29.25,48.6105137 C29.25,48.6105137 31.5,50.4026284 33,49.8052569 C29.25,46.2210275 28.6423636,41 28.6423636,41 L25.3576364,41 Z" id="Fill-15" fill="#E56F99"></path>
                    <path d="M10.6164154,7.88187316 C11.6028092,8.86820486 12,12 12,12 C12,12 8.86800784,11.6022856 7.8821627,10.6159539 C6.89576896,9.63017078 6.70814568,8.21814754 7.46357626,7.46331305 C8.21845824,6.70847856 9.6300217,6.89554146 10.6164154,7.88187316" id="Fill-17" fill="#E56F99"></path>
                    <path d="M12.3835539,7.88187316 C11.3977306,8.86820486 11,12 11,12 C11,12 14.1324714,11.6022856 15.1177462,10.6159539 C16.1041181,9.63017078 16.2917372,8.21814754 15.5368719,7.46331305 C14.7814581,6.70847856 13.3699259,6.89554146 12.3835539,7.88187316" id="Fill-19" fill="#E56F99"></path>
                    <path d="M13,4.5 C13,5.32828608 12.3281779,6 11.4997583,6 C10.6718221,6 10,5.32828608 10,4.5 C10,3.67171392 10.6718221,3 11.4997583,3 C12.3281779,3 13,3.67171392 13,4.5" id="Fill-21" fill="#D94352"></path>
                    <path d="M24.6164461,4.88187316 C25.6022694,5.86820486 26,9 26,9 C26,9 22.8675286,8.60228561 21.8822538,7.61595391 C20.8958819,6.63017078 20.7082628,5.21869611 21.4631281,4.46331305 C22.2185419,3.70847856 23.6300741,3.89554146 24.6164461,4.88187316" id="Fill-23" fill="#E56F99"></path>
                    <path d="M28.3835846,4.88187316 C27.3971908,5.86820486 27,9 27,9 C27,9 30.1319922,8.60228561 31.1178373,7.61595391 C32.104231,6.63017078 32.2918543,5.21869611 31.5364237,4.46331305 C30.7815418,3.70847856 29.3699783,3.89554146 28.3835846,4.88187316" id="Fill-25" fill="#E56F99"></path>
                    <g id="Group-29" transform="translate(25.000000, 0.000000)">
                        <mask id="mask-2" fill="white">
                            <use xlink:href="#path-1"></use>
                        </mask>
                        <g id="Clip-28"></g>
                        <path d="M3.55065,1.9582 C3.55065,2.8152 2.85565,3.5102 1.99865,3.5102 C1.14215,3.5102 0.44715,2.8152 0.44715,1.9582 C0.44715,1.1012 1.14215,0.4062 1.99865,0.4062 C2.85565,0.4062 3.55065,1.1012 3.55065,1.9582" id="Fill-27" fill="#D94352" mask="url(#mask-2)"></path>
                    </g>
                    <path d="M38.6163507,7.88187316 C39.6027906,8.86820486 40,12 40,12 C40,12 36.8678612,11.6022856 35.8819699,10.6159539 C34.89553,9.63017078 34.7084466,8.21814754 35.4633639,7.46331305 C36.2188298,6.70847856 37.6304594,6.89554146 38.6163507,7.88187316" id="Fill-30" fill="#E56F99"></path>
                    <path d="M41.3835846,7.88187316 C40.3971908,8.86820486 40,12 40,12 C40,12 43.1319922,11.6022856 44.1178373,10.6159539 C45.104231,9.63017078 45.2918543,8.21814754 44.5364237,7.46331305 C43.7815418,6.70847856 42.3699783,6.89554146 41.3835846,7.88187316" id="Fill-32" fill="#E56F99"></path>
                    <path d="M42,4.5 C42,5.32828608 41.328553,6 40.5,6 C39.6719304,6 39,5.32828608 39,4.5 C39,3.67171392 39.6719304,3 40.5,3 C41.328553,3 42,3.67171392 42,4.5" id="Fill-34" fill="#D94352"></path>
                    <g id="Group-38" transform="translate(0.000000, 12.000000)">
                        <mask id="mask-4" fill="white">
                            <use xlink:href="#path-3"></use>
                        </mask>
                        <g id="Clip-37"></g>
                        <path d="M46.2396337,0.272672727 C41.6426949,0.272672727 40.5610622,5.99994545 40.5610622,5.99994545 C40.5610622,5.99994545 37.8569806,1.09085455 32.9896337,1.09085455 C28.1222867,1.09085455 25.9590214,6.5454 25.9590214,6.5454 C25.9590214,6.5454 23.7957561,0.5454 18.9284092,0.5454 C14.0610622,0.5454 11.3569806,4.90903636 11.3569806,4.90903636 C10.7144908,2.70049091 9.06121531,0.985581818 7.03045,0.5454 C4.2246949,-0.0627818182 1.04036837,-0.346963636 -0.000162244898,2.99994545 C-0.000162244898,17.7610364 11.8642663,29.7272182 26.4998378,29.7272182 C41.1354092,29.7272182 52.9998378,17.7610364 52.9998378,2.99994545 C52.9998378,2.99994545 50.8365724,0.272672727 46.2396337,0.272672727" id="Fill-36" fill="#FFC54C" mask="url(#mask-4)"></path>
                    </g>
                    <path d="M2,26.5242502 L2,26.5726119 C6.17650378,35.675362 15.4287326,42 26.1652184,42 C36.6200203,42 45.6609863,36.0031469 49.989166,27.2926641 C49.994583,27.0401085 50,26.7821793 50,26.5242502 C49.0574427,23.5419442 46.1756009,23.7944998 43.6350299,24.3372258 C41.7932513,24.729493 40.2981605,26.2555739 39.7131249,28.2222838 C39.7131249,28.2222838 37.2646428,24.3372258 32.8552082,24.3372258 C28.4511906,24.3372258 26.4902381,29.6785089 26.4902381,29.6785089 C26.4902381,29.6785089 24.5292856,24.820843 20.125268,24.820843 C15.7158334,24.820843 13.2673513,29.1948917 13.2673513,29.1948917 C13.2673513,29.1948917 12.2868751,24.0900437 8.12120528,24.0900437 C3.96095249,24.0900437 2,26.5242502 2,26.5242502" id="Fill-39" fill="#ADB3C4"></path>
                </g>
            </g>
        </g>
    </g>
</svg>