<svg xmlns="http://www.w3.org/2000/svg" width="23" height="22" viewBox="0 0 23 22"><g fill="none"><path d="M10.613,1.7a1,1,0,0,1,1.774,0l2.564,4.924a1,1,0,0,0,.719.524l5.457.932a1,1,0,0,1,.549,1.683L17.8,13.753a1,1,0,0,0-.273.842l.805,5.512a1,1,0,0,1-1.436,1.04L11.946,18.68a1,1,0,0,0-.892,0L6.1,21.147a1,1,0,0,1-1.436-1.04L5.474,14.6a1,1,0,0,0-.273-.842L1.325,9.766a1,1,0,0,1,.549-1.683l5.457-.932a1,1,0,0,0,.719-.524Z" stroke="none"/><path d="M 11.4999942779541 4.330350875854492 L 9.823149681091309 7.550580024719238 C 9.392499923706055 8.377590179443359 8.58668041229248 8.965090751647949 7.667559623718262 9.122139930725098 L 4.083766937255859 9.734474182128906 L 6.635810852050781 12.35932064056396 C 7.281660079956055 13.02362060546875 7.58726978302002 13.96752071380615 7.453339576721191 14.88422966003418 L 6.924604415893555 18.50359725952148 L 10.16189002990723 16.89031028747559 C 10.57532978057861 16.68427085876465 11.03804016113281 16.57535934448242 11.5 16.57535934448242 C 11.96195983886719 16.57535934448242 12.42467021942139 16.68427085876465 12.83808994293213 16.89030075073242 L 16.07539176940918 18.50360107421875 L 15.54666996002197 14.88428020477295 C 15.41273021697998 13.96752071380615 15.71833992004395 13.02362060546875 16.36421012878418 12.35930061340332 L 18.91623115539551 9.734476089477539 L 15.33242034912109 9.122139930725098 C 14.41331958770752 8.965090751647949 13.60750007629395 8.377590179443359 13.17683982849121 7.550570487976074 L 11.4999942779541 4.330350875854492 M 11.49999904632568 1.165172576904297 C 11.85006713867188 1.165172576904297 12.20013523101807 1.344554901123047 12.38694953918457 1.703319549560547 L 14.95075035095215 6.626850128173828 C 15.09518051147461 6.904210090637207 15.36104011535645 7.098040580749512 15.66928005218506 7.150710105895996 L 21.12653923034668 8.083149909973145 C 21.92013931274414 8.218740463256836 22.23632049560547 9.188720703125 21.67510032653809 9.765960693359375 L 17.79817008972168 13.75349044799805 C 17.58143043518066 13.97642040252686 17.48070907592773 14.28748035430908 17.52565956115723 14.59513092041016 L 18.33089065551758 20.10725021362305 C 18.42380905151367 20.74333572387695 17.91704368591309 21.25375366210938 17.34187889099121 21.25375366210938 C 17.19454956054688 21.25375366210938 17.04273796081543 21.22026634216309 16.89535903930664 21.14682006835938 L 11.94602966308594 18.68033981323242 C 11.80558967590332 18.61035537719727 11.65279483795166 18.57536315917969 11.5 18.57536315917969 C 11.34720516204834 18.57536315917969 11.19441032409668 18.61035537719727 11.05397033691406 18.68033981323242 L 6.104629516601562 21.14682006835938 C 5.957298278808594 21.22024345397949 5.805402755737305 21.25375366210938 5.658115386962891 21.25375366210938 C 5.082901000976562 21.25375366210938 4.576183319091797 20.74338340759277 4.669109344482422 20.10725021362305 L 5.474340438842773 14.59513092041016 C 5.519290924072266 14.28748035430908 5.418569564819336 13.97642040252686 5.20182991027832 13.75349044799805 L 1.324899673461914 9.765960693359375 C 0.7636795043945312 9.188720703125 1.079870223999023 8.218740463256836 1.87346076965332 8.083149909973145 L 7.330719947814941 7.150710105895996 C 7.638959884643555 7.098040580749512 7.904820442199707 6.904210090637207 8.049249649047852 6.626850128173828 L 10.61303997039795 1.703319549560547 C 10.79986000061035 1.344554901123047 11.14993000030518 1.165172576904297 11.49999904632568 1.165172576904297 Z" stroke="none" fill="#242527"/></g></svg>