<svg xmlns="http://www.w3.org/2000/svg" width="31.133" height="21.494" viewBox="0 0 31.133 21.494"><g transform="translate(-201.016 -125.137)"><g transform="translate(0.009 1.021)" fill="none" stroke-miterlimit="10"><path d="M230.818,137.606s-6.5,8-14.527,8-14.526-8-14.526-8,6.5-8,14.526-8S230.818,137.606,230.818,137.606Z" stroke="none"/><path d="M 216.2902679443359 131.6009826660156 C 211.1550598144531 131.6009826660156 206.5605621337891 135.5247344970703 204.4853515625 137.6055297851562 C 206.5618133544922 139.6875305175781 211.1558990478516 143.6102447509766 216.2902679443359 143.6102447509766 C 221.4276733398438 143.6102447509766 226.0245513916016 139.6831359863281 228.0989074707031 137.6029663085938 C 227.4293212890625 136.9305114746094 226.4939422607422 136.0644989013672 225.3512878417969 135.1947174072266 C 223.1974792480469 133.5552673339844 219.8771514892578 131.6009826660156 216.2902679443359 131.6009826660156 M 216.2902679443359 129.6009826660156 C 224.3132934570312 129.6009826660156 230.8177490234375 137.6056213378906 230.8177490234375 137.6056213378906 C 230.8177490234375 137.6056213378906 224.3132934570312 145.6102447509766 216.2902679443359 145.6102447509766 C 208.2672119140625 145.6102447509766 201.7639923095703 137.6056213378906 201.7639923095703 137.6056213378906 C 201.7639923095703 137.6056213378906 208.2672119140625 129.6009826660156 216.2902679443359 129.6009826660156 Z" stroke="none" fill="#2e241e"/></g><line x1="3.636" y1="3.636" transform="translate(201.723 131.858)" fill="none" stroke="#2e241e" stroke-miterlimit="10" stroke-width="2"/><line y1="3.992" x2="3.992" transform="translate(227.449 131.828)" fill="none" stroke="#2e241e" stroke-miterlimit="10" stroke-width="2"/><line y1="5.633" transform="translate(216.448 125.137)" fill="none" stroke="#2e241e" stroke-miterlimit="10" stroke-width="2"/><g transform="translate(208.658 130.836)" fill="none" stroke="#2e241e" stroke-miterlimit="10" stroke-width="2"><circle cx="7.79" cy="7.79" r="7.79" stroke="none"/><circle cx="7.79" cy="7.79" r="6.79" fill="none"/></g></g></svg>