<?xml version="1.0" encoding="UTF-8"?>
<svg width="90px" height="48px" viewBox="0 0 90 48" version="1.1" xmlns="http://www.w3.org/2000/svg" xmlns:xlink="http://www.w3.org/1999/xlink">
    <!-- Generator: Sketch 51.2 (57519) - http://www.bohemiancoding.com/sketch -->
    <title>UN environment logo</title>
    <desc>Created with Sketch.</desc>
    <defs>
        <polygon id="path-1" points="0.412127212 0.292907347 4.423816 0.292907347 4.423816 7.09809473 0.412127212 7.09809473"></polygon>
        <polygon id="path-3" points="0 0.410576677 21.7439507 0.410576677 21.7439507 29.168268 0 29.168268"></polygon>
        <polygon id="path-5" points="0 0.101500347 7.68635254 0.101500347 7.68635254 8.88383453 0 8.88383453"></polygon>
        <polygon id="path-7" points="0 47.1192596 89.7107597 47.1192596 89.7107597 0.444202832 0 0.444202832"></polygon>
    </defs>
    <g id="UI-Design" stroke="none" stroke-width="1" fill="none" fill-rule="evenodd">
        <g id="About" transform="translate(-294.000000, -1231.000000)">
            <g id="UN-environment-logo" transform="translate(294.000000, 1231.000000)">
                <path d="M72.9517864,26.3673022 C71.1419959,26.8607295 69.8062829,28.4608931 69.1905878,29.1836818 L68.6806429,28.8647442 C68.6806429,28.8647442 69.8857954,27.2318001 72.4971436,26.269337 C72.2926816,26.2369661 72.0828842,26.2195163 71.8680648,26.2195163 C70.1467788,26.2195163 68.3935102,27.6538473 65.9392896,27.6538473 C62.5926654,27.6538473 61.6682794,26.31502 61.6682794,26.31502 C62.4336408,26.7929822 63.2300965,26.6974786 63.2300965,26.6974786 C65.1743723,26.6974786 66.6087032,25.5820853 69.3818615,25.5820853 C70.7635026,25.5820853 71.9503356,25.7954906 72.9518807,26.1134771 C73.953406,25.7954906 75.1401835,25.5820853 76.5217113,25.5820853 C79.2948696,25.5820853 80.7292005,26.6974786 82.6739205,26.6974786 C82.6739205,26.6974786 83.4703762,26.7929822 84.2352935,26.31502 C84.2352935,26.31502 83.3109074,27.6538473 79.9642833,27.6538473 C77.5100626,27.6538473 75.756794,26.2195163 74.0355081,26.2195163 C73.8207366,26.2195163 73.6109848,26.2369583 73.4065659,26.2693154 C76.0179803,27.2317757 77.2229299,28.8647442 77.2229299,28.8647442 L76.7129851,29.1836818 C76.0972899,28.4608931 74.761577,26.8607295 72.9517864,26.3673022 Z M59.1822982,18.3942172 C58.9908468,18.0597324 57.6520194,16.6254015 57.4770035,16.3384465 C57.3010992,16.0514914 55.8032473,14.2347018 56.9346319,11.5410559 C56.9346319,11.5410559 57.046571,11.5090733 57.046571,12.1465043 C57.046571,12.7843796 57.6360281,14.2027192 58.1139904,14.8081677 C58.5923968,15.4136162 59.0223852,16.3859762 59.118333,17.4218572 C59.118333,17.4218572 59.1822982,17.6133086 59.2613663,17.6292999 C59.3413228,17.644847 59.3413228,17.4378485 59.3413228,17.4378485 C59.3413228,17.4378485 59.2778018,16.481924 59.2778018,15.8285016 C59.2778018,15.174635 59.5647568,14.0592417 60.1857524,13.4218107 C60.1857524,13.4218107 60.4731516,13.102873 60.6481675,12.7204144 C60.6481675,12.7204144 60.7596625,12.465442 60.9191313,12.3379558 C60.9191313,12.3379558 61.0466175,14.1707366 60.4251777,15.8760313 C59.803738,17.581326 59.5962952,17.868281 59.6917989,18.7926671 C59.6917989,18.7926671 59.7077902,18.9996656 59.6762518,19.0316482 C59.6185054,19.0889504 59.3733054,18.7287019 59.1822982,18.3942172 Z M64.6330223,14.8082565 C64.6330223,14.1046393 64.7174209,13.4205669 64.8760013,12.7653677 L70.4813968,13.4854205 C70.4813968,13.4854205 72.6331153,13.5809241 72.5531588,17.3904076 C72.4763117,21.0875078 70.7656866,23.0730944 70.7656866,23.0730944 C67.2173944,22.001233 64.6330223,18.7065806 64.6330223,14.8082565 Z M81.9082037,14.8082565 C81.9082037,18.7065806 79.3238316,22.001233 75.7755394,23.0730944 C75.7755394,23.0730944 74.0649143,21.0875078 73.9880672,17.3904076 C73.9081107,13.5809241 76.0598292,13.4854205 76.0598292,13.4854205 L81.6652248,12.7653677 C81.8238052,13.4205669 81.9082037,14.1046393 81.9082037,14.8082565 Z M74.577702,9.93575126 C74.577702,9.21392166 73.9926869,8.62846233 73.2704131,8.62846233 C72.5485835,8.62846233 71.9635684,9.21392166 71.9635684,9.93575126 C71.9635684,10.4967794 72.3495806,10.9169953 72.8173262,11.1657489 C72.8741842,11.1959547 72.9279327,11.2226069 72.9163835,11.3114474 C72.90439,11.4038416 72.6365357,11.4535923 72.5214871,11.4802445 L64.9869187,12.3548799 C66.0436772,8.78260071 69.3503231,6.17601849 73.2757436,6.17601849 C77.1909473,6.17601849 80.4975932,8.78260071 81.5543517,12.3548799 L74.0197833,11.4802445 C73.9042906,11.4535923 73.6368805,11.4038416 73.624887,11.3114474 C73.6128935,11.2226069 73.666642,11.1959547 73.7239442,11.1657489 C74.1916898,10.9169953 74.577702,10.4967794 74.577702,9.93575126 Z M64.7758779,25.4544214 C63.9923041,25.6858511 59.8514454,26.1873561 58.0342116,21.8843632 C58.0342116,21.8843632 59.7554975,23.7331354 61.0943249,23.8606216 C62.4335964,23.9881078 63.8994658,24.3070455 65.1423453,25.0079975 L65.4297445,25.0719628 C65.4297445,25.0719628 65.3897663,24.9444765 65.2698315,24.8805113 C65.1059206,24.7934476 63.8181766,24.3763411 63.1980695,22.3307871 C62.8791319,21.2789148 62.9430971,20.5139975 62.8156108,19.97207 C62.8156108,19.97207 64.2179592,21.5338872 64.7918692,22.5217943 C65.3657793,23.5101456 65.4297445,24.6255389 66.6086588,25.2949526 C66.5131552,25.549925 65.4772742,25.2474229 64.7758779,25.4544214 Z M61.9232962,23.0160144 C61.8273484,22.9680405 61.138834,22.6539891 59.9630291,22.2351058 C58.7996619,21.8206645 56.6319521,19.9878837 56.8393948,16.848258 C56.8393948,16.848258 57.1418969,18.0276166 58.0343004,18.8085251 C58.9271481,19.5894337 59.2460857,19.6849373 59.787569,20.3228126 C60.3294964,20.9602437 61.5568289,22.4105659 61.6043586,22.3945746 C61.6523325,22.3785833 61.6683238,22.2986268 61.5728202,22.2191145 C61.4768724,22.1396022 61.1579347,21.3427023 60.9509362,21.0717386 C60.7439377,20.8007748 60.1220537,18.9360114 61.0304485,16.6408153 C61.0304485,16.6408153 62.0032527,18.3145716 61.9392875,20.003875 C61.8757665,21.6931783 61.79581,21.2947284 62.209807,22.6970767 C62.209807,22.6970767 62.433241,23.0799796 62.3852671,23.1275093 C62.2817679,23.2314527 62.0187998,23.0635441 61.9232962,23.0160144 Z M62.7999305,4.67230307 C63.0389116,4.44886904 63.2778927,3.77989958 63.692334,3.15801561 C64.106331,2.53657585 65.0471526,0.911237689 67.485382,0.528334848 C67.485382,0.528334848 66.7524473,1.0702623 66.6409524,1.24572242 C66.5294575,1.42118254 65.8116257,2.36111573 65.4935765,2.68005337 C65.1746388,2.9985468 64.266244,3.66840467 63.9632977,3.81143798 C63.9632977,3.81143798 63.8038289,3.93936839 63.8358115,3.9868981 C63.8673499,4.0344278 64.0272629,3.93936839 64.0272629,3.93936839 C64.0272629,3.93936839 64.8716925,3.28550182 65.8915822,3.25396342 C66.9114719,3.22198082 67.9793355,3.26995473 68.1388043,3.28550182 C68.1388043,3.28550182 67.1824356,3.93936839 64.9032309,4.35336543 C62.6244704,4.76780667 63.0544587,4.78379798 62.7039827,5.0067878 C62.7039827,5.0067878 62.6244704,5.07075301 62.5605052,5.0227791 C62.5605052,5.0227791 62.5605052,4.89529289 62.7999305,4.67230307 Z M67.0391358,2.13830359 C67.4056031,2.02636448 67.3740647,1.67588844 68.489458,1.08643129 C69.6048513,0.496529925 70.7682186,0.225566198 71.9475771,0.71996395 C71.9475771,0.71996395 71.4536235,0.783484955 71.373667,0.815467559 C71.2945989,0.847450162 70.4492809,1.07043998 70.2102998,1.1979262 C69.9713187,1.32541241 68.7439863,1.86733986 68.2504769,1.96284347 C67.7560792,2.05834708 67.9955045,2.09032969 67.9955045,2.09032969 C67.9955045,2.09032969 68.1069994,2.13830359 68.202503,2.13830359 C68.2984508,2.13830359 69.3978528,2.02636448 70.1147962,2.28178111 C70.8321838,2.53675353 70.8166367,2.63225714 71.1031475,2.72776075 C71.3901025,2.82326436 71.7245873,2.88722957 71.7725612,2.99872448 C71.7725612,2.99872448 71.0556178,3.06224548 70.6251853,3.06224548 C70.1947527,3.06224548 69.0629239,2.95119477 68.5214406,2.69577815 C67.9795132,2.44124992 67.3576292,2.32931081 67.1506307,2.37728472 C66.9436322,2.42481442 66.6886598,2.42481442 66.6246945,2.37728472 C66.6246945,2.37728472 66.6722243,2.2497985 67.0391358,2.13830359 Z M71.5173666,1.69196859 C71.8363043,1.62800338 71.9162608,1.43699616 72.6647426,1.27752734 C73.4141127,1.11805853 74.5774799,0.975025216 75.6453436,1.70795989 C75.6453436,1.70795989 74.991477,1.69196859 74.8484437,1.69196859 C74.7049662,1.69196859 73.4616424,1.91495841 73.1751316,1.91495841 C72.8881766,1.91495841 72.3142665,1.7874722 72.23431,1.88342001 C72.1552419,1.97892362 72.7606904,2.10640983 72.856194,2.13839243 C72.9521418,2.16993083 73.3821301,2.20191344 73.9240576,2.72784959 C74.465985,3.25378574 74.8484437,3.54074077 74.9119647,3.57272338 C74.9119647,3.57272338 73.3186091,3.20625604 72.919715,2.98282202 C72.5217092,2.75983219 71.8363043,2.07442722 71.7248094,2.02645332 C71.6128702,1.97892362 71.1508993,1.8194548 71.1508993,1.8194548 C71.1508993,1.8194548 71.198429,1.75548959 71.5173666,1.69196859 Z M76.5693299,2.90295435 C77.3027087,3.36536949 77.8926101,3.97126216 77.9561311,4.33772949 C77.9561311,4.33772949 77.5416899,3.98680926 77.2707261,3.90729695 C76.9997624,3.82734044 76.2348451,3.3973521 76.0758205,3.30140429 C75.9159075,3.20590068 74.9915214,2.61644352 74.8324968,2.47296601 C74.8324968,2.47296601 75.8368394,2.4409834 76.5693299,2.90295435 Z M80.1709708,24.9124939 C80.6498215,24.4980527 80.7773077,23.8926042 81.3027997,22.9522268 C81.8287358,22.0118494 82.2751597,21.3584271 83.3430233,20.4020584 C83.3430233,20.4020584 83.1515718,21.119446 83.1355805,21.34288 C83.1195892,21.5654256 82.9445733,22.8087493 82.3386807,23.5261369 C81.7332322,24.2430803 81.7012496,24.4025491 81.0002975,24.8329816 C81.0002975,24.8329816 80.7288896,25.0239888 80.7448809,25.0879541 C80.7613164,25.1514751 81.2232874,25.0719628 81.2232874,25.0719628 C81.2232874,25.0719628 81.7332322,24.8805113 81.892701,24.7850077 C82.0521698,24.6895041 82.7691132,24.3230368 83.0560682,24.2115419 C83.3430233,24.0996028 83.5820044,23.9881078 84.2194355,23.7966564 C84.8568665,23.6056492 87.1676097,23.016192 88.0760044,21.5498785 C88.0760044,21.5498785 87.8054849,22.4102994 87.470556,22.8087493 C87.1360712,23.2071993 85.2397694,25.7093938 82.6100886,25.6614199 C82.6100886,25.6614199 81.5742076,25.5819076 81.0318359,25.486404 C80.4899085,25.3904562 80.2993455,25.3904562 80.219389,25.4064475 C80.1394324,25.4224388 79.6294876,25.5179424 79.5499753,25.4704127 C79.5499753,25.4704127 79.6930086,25.3269352 80.1709708,24.9124939 Z M84.2191245,20.3065992 C84.4425585,18.0753684 85.4304656,16.5295425 85.4304656,16.5295425 C85.4464569,16.8804628 85.7338562,18.5217922 85.7174207,18.9677719 C85.7014294,19.4141957 85.6538997,19.8446282 85.4624482,20.5460245 C85.271441,21.2469766 84.8254614,21.852425 84.7770433,21.96392 C84.7295136,22.0758591 84.7135223,22.2193366 84.7135223,22.2193366 C84.8254614,22.2668663 85.4304656,21.6614178 85.6379084,21.3264889 C85.8453511,20.9920042 86.8012756,19.8286369 86.992727,19.6691681 C87.1837342,19.5096993 88.8090724,17.7248923 88.8570463,17.6769184 C88.9050202,17.6293887 89.1440013,17.3264424 89.2554962,16.9439838 C89.3669911,16.5615251 89.5904252,16.3380911 89.5904252,16.3380911 C89.5584426,16.5770722 89.2554962,19.430187 87.7572001,20.864518 C86.2593481,22.2988489 85.5739432,22.1713627 84.8729911,22.601351 C84.1715948,23.0317836 83.9801434,23.1437227 83.9326137,23.1277314 C83.885084,23.1117401 84.0125702,22.8567677 84.0125702,22.8567677 C84.3790375,21.8684164 83.9961347,22.53783 84.2191245,20.3065992 Z M87.5182634,12.6406356 C87.3272561,12.4016544 85.6854825,10.4573786 85.3350064,8.51310285 C85.3350064,8.51310285 86.3708875,9.56497516 86.5463476,9.67647007 C86.7213635,9.78796498 87.4227598,10.4893612 87.6302025,11.0948097 C87.837201,11.7007024 87.7892271,12.2106472 87.8691836,12.2266385 C87.9491401,12.2421856 87.9491401,11.5572249 87.9491401,11.5572249 C87.9491401,11.5572249 87.9646872,10.2183975 88.0761821,9.58096646 C88.1881212,8.94353539 88.4746321,7.87567179 88.3471458,7.33374433 C88.3471458,7.33374433 88.9690298,8.32165143 88.936603,9.72444397 C88.9050646,11.1267923 88.3151632,12.2421856 88.2356509,12.4016544 C88.1561386,12.5611233 87.9331488,13.2465282 87.9331488,13.3900057 C87.9331488,13.5334833 87.7416974,13.6289869 87.7416974,13.6289869 C87.6617409,13.6129956 87.7097148,12.8796167 87.5182634,12.6406356 Z M87.6142112,9.19855224 C87.6142112,9.19855224 87.6142112,9.39000366 87.486725,9.18256094 C87.3592388,8.97511822 86.8972678,8.38566106 86.6898251,8.25817485 C86.4823824,8.13068863 84.5700892,6.96732142 83.757198,5.18207024 C83.757198,5.18207024 83.8846842,5.15053183 84.0761356,5.32554775 C84.267587,5.50100787 84.8570442,5.8039542 84.9525478,5.8514839 C85.0480514,5.89945781 85.7174651,6.07491793 86.2118628,6.61640118 C86.7058164,7.15832863 86.8808323,7.55677857 87.0243098,7.87571621 C87.0243098,7.87571621 87.1677873,7.98721112 87.0722837,7.66871769 C86.9763359,7.34978005 86.9607888,7.14233733 86.7058164,6.74388739 C86.450844,6.34543745 86.2274099,5.62849408 86.1954273,5.13409633 C86.1638889,4.64058698 86.0204114,3.90720811 85.7974216,3.65223568 C85.7974216,3.65223568 87.9491401,4.92709781 87.6142112,9.19855224 Z M85.271441,4.46490476 C85.4784395,4.8633547 85.4304656,5.15030973 85.4304656,5.15030973 C85.4304656,5.15030973 85.0160244,4.48089607 83.8051275,4.17839394 C82.5937864,3.87544761 81.478393,2.87154921 81.478393,2.87154921 C81.7333655,2.99859122 82.6737429,3.09453903 83.1676964,3.19004264 C83.66165,3.28554625 84.4425585,3.87544761 84.4905324,3.92297731 C84.5380621,3.97095121 84.7135223,4.09843743 84.7135223,4.01892512 C84.7135223,3.93896861 84.6495571,3.8114824 84.6180187,3.76350849 C84.4549962,3.51919693 84.0125702,3.09453903 83.9326137,2.95106151 C83.8526572,2.807584 83.7735891,2.60014128 83.5341637,2.31363045 C83.2947384,2.02667542 82.9287153,1.51673057 82.9287153,1.51673057 C82.9287153,1.51673057 84.2035774,1.97870151 84.5700448,2.56860287 C85.2256881,3.6231404 85.0644425,4.06689903 85.271441,4.46490476 Z M79.805081,1.03881274 C81.7968865,1.00638594 82.912724,2.52067339 82.912724,2.52067339 C81.6058793,2.21772706 81.1754467,1.89923363 80.968004,1.77130321 C80.7610055,1.6442612 80.3625555,1.24581126 80.1395657,1.19783736 C79.9165759,1.15030765 79.805081,1.03881274 79.805081,1.03881274 Z" id="Fill-15" fill="#2F3236"></path>
                <path d="M58.4808131,13.5970931 C58.4488305,13.421633 58.2578233,12.4017433 58.1303371,12.1787535 C58.0028508,11.9557636 57.5244444,10.9354297 57.5084531,9.74007991 C57.4924618,8.54473009 58.0343892,6.91939193 59.2457304,5.6285385 C59.2457304,5.6285385 59.1977565,6.01099714 58.879263,6.85542672 C58.5603254,7.70030051 58.7517768,8.49720039 58.7833152,8.6406779 C58.815742,8.78415542 58.9272369,9.77117411 58.9272369,10.2344777 C58.9272369,10.600945 58.8312891,11.8598158 58.7517768,12.1147883 C58.7517768,12.1147883 58.7197942,12.2902484 58.7833152,12.2902484 C58.8472804,12.2902484 58.9112456,12.1467709 58.9112456,12.1467709 C58.9112456,12.1467709 58.9747666,11.1588638 59.7077013,10.2660161 C60.4410802,9.37361258 61.763472,8.83168512 61.9709147,8.43367938 C61.9709147,8.43367938 61.8754111,9.83602772 60.3295853,11.4773572 C58.9530007,12.9392287 59.3572253,12.1947448 58.9112456,13.3900946 C58.9112456,13.3900946 58.7197942,13.8360742 58.7197942,13.9315778 C58.7197942,14.0275256 58.6242906,13.995543 58.6242906,13.995543 C58.5603254,13.995543 58.5127957,13.7725532 58.4808131,13.5970931 Z" id="Fill-17" fill="#2F3236"></path>
                <path d="M59.6763406,8.65662479 C59.9153217,8.22619224 59.6603493,7.46127497 59.9788427,6.34543745 C60.2973362,5.23004414 60.8872375,3.31775095 63.1344596,2.16993083 C63.1344596,2.16993083 62.9114698,2.37737356 62.7999749,2.53684237 C62.6880358,2.69586699 62.0825873,3.8436871 61.9071272,4.64058698 C61.7321113,5.43748686 60.9667498,6.77587 60.680239,7.07881633 C60.393284,7.38131846 60.5207702,7.41330106 60.5207702,7.41330106 C60.5207702,7.41330106 60.6638035,7.38131846 60.8077252,7.15832863 C60.9512027,6.93533881 61.6841374,6.10645633 62.4965844,5.91544911 C63.3094756,5.72399769 64.6007732,5.34153905 64.6802855,5.26158254 C64.6802855,5.26158254 63.2779372,6.69635769 61.9870837,7.42929236 C60.6962303,8.16222703 60.5523086,7.93923721 59.7878355,8.92758851 C59.7878355,8.92758851 59.5328631,9.27806455 59.4688979,9.27806455 C59.4688979,9.27806455 59.4373595,9.08661313 59.6763406,8.65662479 Z" id="Fill-19" fill="#2F3236"></path>
                <g id="Group-35" transform="translate(85.286944, 11.583033)">
                    <mask id="mask-2" fill="white">
                        <use xlink:href="#path-1"></use>
                    </mask>
                    <g id="Clip-34"></g>
                    <path d="M1.48261579,7.09809473 C1.48261579,7.09809473 1.38311436,6.86666505 1.46662449,6.69964479 C1.51415419,6.60414118 1.5621281,5.8392239 1.27517307,5.21733994 C0.988662243,4.59590018 0.366778278,2.87461421 0.414752184,1.72723829 C0.462281887,0.579862377 0.5897681,0.42039356 0.5897681,0.42039356 C0.5897681,0.42039356 0.908705733,1.36032675 1.00465354,1.51979557 C1.10015715,1.67926439 2.05608165,3.36856775 1.97612514,4.29295385 C1.89705703,5.21733994 1.84908313,5.50429497 1.89705703,5.52028627 C1.94458674,5.53627757 2.05608165,5.40879136 2.07207295,5.29729645 C2.08806425,5.18535734 2.24753307,4.54792627 2.5500352,3.7990003 C2.85298153,3.05007432 4.08031395,1.39230936 4.35127768,0.292907347 C4.35127768,0.292907347 4.74928342,2.20520054 3.68186401,3.99000752 C2.6140004,5.7752587 2.50250549,5.37680876 2.05608165,6.18969994 C1.610102,7.00259112 1.546581,7.09809473 1.48261579,7.09809473" id="Fill-33" fill="#2F3236" mask="url(#mask-2)"></path>
                </g>
                <g id="Group-46" transform="translate(0.000000, 0.033759)">
                    <mask id="mask-4" fill="white">
                        <use xlink:href="#path-3"></use>
                    </mask>
                    <g id="Clip-45"></g>
                    <path d="M21.7439507,0.410576677 L21.7439507,19.1346144 C21.7439507,20.7710577 21.4712102,22.2160495 20.9257291,23.4695899 C20.380248,24.7226861 19.6264358,25.7718932 18.6656251,26.6163227 C17.703926,27.4607523 16.5578827,28.0968508 15.2266068,28.5255065 C13.8948867,28.953718 12.443676,29.168268 10.8720864,29.168268 C9.28717071,29.168268 7.82929701,28.953718 6.49802112,28.5255065 C5.16674524,28.0968508 4.02070193,27.4607523 3.059447,26.6163227 C2.09730367,25.7718932 1.34748929,24.7226861 0.809115458,23.4695899 C0.26985322,22.2160495 -0.000222101416,20.7710577 -0.000222101416,19.1346144 L-0.000222101416,0.410576677 L5.84504296,0.410576677 L5.84504296,19.1346144 C5.84504296,20.9918265 6.2901342,22.3457567 7.17987247,23.1964051 C8.06961074,24.0474978 9.30049679,24.4725999 10.8720864,24.4725999 C12.4565579,24.4725999 13.687444,24.0474978 14.5638561,23.1964051 C15.4411567,22.3457567 15.8791407,20.9918265 15.8791407,19.1346144 L15.8791407,0.410576677 L21.7439507,0.410576677 Z" id="Fill-44" fill="#2F3236" mask="url(#mask-4)"></path>
                </g>
                <polygon id="Fill-47" fill="#2F3236" points="49.6053296 28.8123727 43.7605087 28.8123727 32.3822532 10.1469697 32.3822532 28.8123727 26.5369881 28.8123727 26.5369881 0.444247252 32.3822532 0.444247252 43.7800536 19.1482959 43.7800536 0.444247252 49.6053296 0.444247252"></polygon>
                <g id="Group-51" transform="translate(0.000000, 38.235203)">
                    <mask id="mask-6" fill="white">
                        <use xlink:href="#path-5"></use>
                    </mask>
                    <g id="Clip-50"></g>
                    <path d="M3.94483209,1.93339283 C3.69963213,1.93339283 3.48463795,1.9764805 3.29896117,2.06221165 C3.11372859,2.148387 2.95470398,2.26832176 2.82188733,2.42246014 C2.68862648,2.57659853 2.58068519,2.7604985 2.49673086,2.97460426 C2.41322072,3.18826583 2.35325334,3.42591434 2.31638451,3.6866614 L5.46356157,3.6866614 L5.46356157,3.50675926 C5.45823114,3.28243683 5.42536013,3.07321729 5.36583695,2.88043326 C5.30542536,2.68720503 5.21436378,2.52018477 5.0917638,2.37937247 C4.96916382,2.23856017 4.81236022,2.12884207 4.6217972,2.05066237 C4.43123419,1.97248267 4.20557915,1.93339283 3.94483209,1.93339283 M4.20335814,8.88383453 C3.54593795,8.88383453 2.95692499,8.77678165 2.43809608,8.56267589 C1.91837877,8.34901432 1.47817376,8.05672886 1.11526005,7.6862637 C0.752346336,7.31624274 0.476052175,6.88181237 0.28548916,6.38297259 C0.0949261452,5.88502122 -0.00013326085,5.35153362 -0.00013326085,4.78250979 L-0.00013326085,4.47689824 C-0.00013326085,3.83546935 0.092705131,3.2473448 0.277937712,2.71163619 C0.463170293,2.17726018 0.726582572,1.71662184 1.06861875,1.33060958 C1.40976653,0.944153119 1.82509617,0.642983599 2.31283088,0.42665682 C2.8010098,0.209885838 3.34737928,0.101500347 3.95282774,0.101500347 C4.56360663,0.101500347 5.10064786,0.20233439 5.56483982,0.40311407 C6.02947598,0.60389375 6.41948606,0.885962548 6.73531428,1.24843206 C7.05114249,1.61090157 7.2883468,2.04799716 7.44781562,2.55971882 C7.60684023,3.07099628 7.68635254,3.6395759 7.68635254,4.26545769 L7.68635254,5.22848943 L2.29328596,5.22848943 C2.32971059,5.5052278 2.40433667,5.75575819 2.51627578,5.97963642 C2.6286591,6.20440305 2.77169241,6.39585447 2.94670833,6.55532329 C3.12172424,6.71479211 3.32650175,6.83828049 3.56148504,6.92712106 C3.79602414,7.01551742 4.05943642,7.05993771 4.35216608,7.05993771 C4.76438631,7.05993771 5.14506814,6.98309062 5.49465577,6.82895223 C5.8442434,6.67570226 6.14452451,6.43672113 6.39461071,6.11289727 L7.50645039,7.3575536 C7.37052433,7.55078184 7.20128305,7.73867963 6.99783815,7.92080279 C6.79394905,8.10381436 6.55407952,8.2668368 6.27734116,8.41075852 C6.00060279,8.55379183 5.68921661,8.66884036 5.34184999,8.75457151 C4.99537179,8.84119106 4.61557836,8.88383453 4.20335814,8.88383453" id="Fill-49" fill="#2F3236" mask="url(#mask-6)"></path>
                </g>
                <path d="M11.0522995,38.4932848 L11.1224835,39.4718636 C11.414769,39.1067289 11.7670219,38.8264369 12.1792421,38.6305435 C12.5914623,38.43465 13.050768,38.3364812 13.5567151,38.3364812 C13.9587186,38.3364812 14.3242976,38.392895 14.6525634,38.5048341 C14.9817177,38.6176616 15.2633423,38.8015616 15.4978814,39.0574224 C15.7328647,39.312839 15.9140995,39.6468795 16.0420299,40.0586556 C16.1699603,40.4708758 16.2343697,40.977267 16.2343697,41.5773851 L16.2343697,46.962456 L13.9716005,46.962456 L13.9716005,41.561838 C13.9716005,41.29043 13.9418389,41.0661076 13.8818715,40.8884265 C13.82146,40.7111895 13.7343962,40.5703772 13.6197919,40.4655454 C13.5047433,40.3616019 13.363931,40.2869758 13.1969108,40.2425555 C13.0298905,40.1985795 12.8371065,40.1763693 12.6176703,40.1763693 C12.2836297,40.1763693 11.9980073,40.2492186 11.7603588,40.3953613 C11.5231545,40.5419483 11.3312589,40.7396185 11.1851161,40.9905931 L11.1851161,46.962456 L8.92323533,46.962456 L8.92323533,38.4932848 L11.0522995,38.4932848 Z" id="Fill-52" fill="#2F3236"></path>
                <polygon id="Fill-54" fill="#2F3236" points="21.1182022 44.1993811 22.6915686 38.4931515 25.0551719 38.4931515 22.1985035 46.9627669 20.0379009 46.9627669 17.1812325 38.4931515 19.5448358 38.4931515"></polygon>
                <mask id="mask-8" fill="white">
                    <use xlink:href="#path-7"></use>
                </mask>
                <g id="Clip-57"></g>
                <path d="M26.1666562,46.962456 L28.4369769,46.962456 L28.4369769,38.4932848 L26.1666562,38.4932848 L26.1666562,46.962456 Z M26.0338396,36.301588 C26.0338396,35.9626613 26.1471113,35.6832577 26.3740989,35.4642657 C26.6010866,35.2452737 26.910696,35.1355556 27.3020386,35.1355556 C27.4948227,35.1355556 27.6693944,35.1644288 27.826198,35.2217309 C27.9830016,35.2790331 28.1158182,35.359878 28.2255363,35.4642657 C28.3348102,35.5686533 28.4200972,35.6925859 28.4800646,35.8360635 C28.5395877,35.979541 28.5697935,36.1345678 28.5697935,36.301588 C28.5697935,36.4739387 28.5395877,36.6320749 28.4800646,36.7751082 C28.4200972,36.91903 28.3348102,37.0425183 28.2255363,37.1473502 C28.1158182,37.2517379 27.9830016,37.3325828 27.826198,37.389885 C27.6693944,37.4471871 27.4948227,37.4756161 27.3020386,37.4756161 C27.1088104,37.4756161 26.9342387,37.4471871 26.7774351,37.389885 C26.6206315,37.3325828 26.4878149,37.2517379 26.3780968,37.1473502 C26.2688229,37.0425183 26.1835359,36.91903 26.1235685,36.7751082 C26.0640454,36.6320749 26.0338396,36.4739387 26.0338396,36.301588 Z" id="Fill-56" fill="#2F3236" mask="url(#mask-8)"></path>
                <path d="M35.0585308,40.6147531 C34.9439265,40.599206 34.809333,40.5849915 34.6551946,40.5716654 C34.5015005,40.5587835 34.364686,40.5521205 34.244307,40.5521205 C33.8009926,40.5521205 33.4425209,40.6263024 33.1680036,40.7751103 C32.8943746,40.9234741 32.6918181,41.1389124 32.5616667,41.4209812 L32.5616667,46.9628558 L30.2997859,46.9628558 L30.2997859,38.4932404 L32.4364015,38.4932404 L32.4990341,39.5033576 C32.7126957,39.1377787 32.9765521,38.8521563 33.2897151,38.6460461 C33.6024339,38.439936 33.9680129,38.336881 34.3855635,38.336881 C34.5050541,38.336881 34.6320961,38.3475418 34.7653569,38.3679752 C34.8981736,38.3892969 35.0065591,38.4123955 35.089625,38.4386034 L35.0585308,40.6147531 Z" id="Fill-58" fill="#2F3236" mask="url(#mask-8)"></path>
                <path d="M37.7749644,42.8140902 C37.7749644,43.1587916 37.8060586,43.4821712 37.8686912,43.7846733 C37.9313238,44.0876197 38.0317136,44.3496993 38.1698607,44.5713566 C38.308452,44.7930138 38.4883541,44.9693623 38.7100114,45.0995137 C38.9316686,45.2301094 39.2044091,45.294963 39.528233,45.294963 C39.8409518,45.294963 40.1083619,45.2301094 40.3300191,45.0995137 C40.5521205,44.9693623 40.7333553,44.7930138 40.8746118,44.5713566 C41.0149798,44.3496993 41.1171465,44.0876197 41.1797791,43.7846733 C41.2419675,43.4821712 41.2735059,43.1587916 41.2735059,42.8140902 L41.2735059,42.6497351 C41.2735059,42.3156946 41.2419675,41.998978 41.1797791,41.6986968 C41.1171465,41.3988599 41.0149798,41.1350035 40.8746118,40.9080158 C40.7333553,40.6810282 40.5507879,40.5006818 40.3264655,40.3683094 C40.102143,40.2350485 39.8307351,40.1684181 39.5126859,40.1684181 C39.1995229,40.1684181 38.9316686,40.2350485 38.7100114,40.3683094 C38.4883541,40.5006818 38.308452,40.6810282 38.1698607,40.9080158 C38.0317136,41.1350035 37.9313238,41.3988599 37.8686912,41.6986968 C37.8060586,41.998978 37.7749644,42.3156946 37.7749644,42.6497351 L37.7749644,42.8140902 Z M35.5126394,42.6497351 C35.5126394,42.0345142 35.6010357,41.4628251 35.7787169,40.9355564 C35.9559538,40.4082876 36.2144798,39.9534239 36.5534066,39.5696327 C36.8927776,39.1862856 37.3116608,38.8846719 37.8100564,38.6656799 C38.308452,38.4462437 38.875699,38.3365256 39.5126859,38.3365256 C40.1541148,38.3365256 40.7258038,38.4462437 41.2264204,38.6656799 C41.7274812,38.8846719 42.1490297,39.1862856 42.4906217,39.5696327 C42.8326578,39.9534239 43.0920723,40.4082876 43.2697534,40.9355564 C43.4469904,41.4628251 43.5358309,42.0345142 43.5358309,42.6497351 L43.5358309,42.8140902 C43.5358309,43.4350857 43.4469904,44.0076632 43.2697534,44.5322667 C43.0920723,45.0564261 42.8326578,45.5104013 42.4906217,45.8941926 C42.1490297,46.2775396 41.7301464,46.5778208 41.234416,46.7941475 C40.7386857,47.0109185 40.1701061,47.119304 39.528233,47.119304 C38.8863599,47.119304 38.3160034,47.0109185 37.8180521,46.7941475 C37.3192123,46.5778208 36.8989964,46.2775396 36.5574044,45.8941926 C36.2158125,45.5104013 35.9559538,45.0564261 35.7787169,44.5322667 C35.6010357,44.0076632 35.5126394,43.4350857 35.5126394,42.8140902 L35.5126394,42.6497351 Z" id="Fill-59" fill="#2F3236" mask="url(#mask-8)"></path>
                <path d="M47.0108297,38.4932848 L47.0810137,39.4718636 C47.3732992,39.1067289 47.725552,38.8264369 48.1382165,38.6305435 C48.5504367,38.43465 49.0092982,38.3364812 49.5156894,38.3364812 C49.9172488,38.3364812 50.2828277,38.392895 50.6110936,38.5048341 C50.9402479,38.6176616 51.2218725,38.8015616 51.4568558,39.0574224 C51.6913949,39.312839 51.8726297,39.6468795 52.0010043,40.0586556 C52.1284905,40.4708758 52.1928999,40.977267 52.1928999,41.5773851 L52.1928999,46.962456 L49.9301307,46.962456 L49.9301307,41.561838 C49.9301307,41.29043 49.9003691,41.0661076 49.8404017,40.8884265 C49.7799901,40.7111895 49.6929264,40.5703772 49.578322,40.4655454 C49.4632735,40.3616019 49.3224612,40.2869758 49.1558851,40.2425555 C48.9884207,40.1985795 48.7956367,40.1763693 48.5762005,40.1763693 C48.2421599,40.1763693 47.9565375,40.2492186 47.7193332,40.3953613 C47.4821289,40.5419483 47.2902333,40.7396185 47.1440905,40.9905931 L47.1440905,46.962456 L44.8817655,46.962456 L44.8817655,38.4932848 L47.0108297,38.4932848 Z" id="Fill-60" fill="#2F3236" mask="url(#mask-8)"></path>
                <path d="M56.0280583,38.4932848 L56.0986866,39.4403252 C56.3803112,39.096068 56.7232357,38.8264369 57.1283487,38.6305435 C57.5321291,38.43465 58.0007631,38.3364812 58.5329181,38.3364812 C59.0388651,38.3364812 59.4861774,38.4386478 59.875299,38.6420927 C60.2639765,38.8455376 60.565146,39.1742477 60.7792518,39.628223 C61.0559902,39.2266637 61.4042452,38.9108355 61.8244611,38.6811826 C62.2442327,38.4515297 62.7439609,38.3364812 63.3232014,38.3364812 C63.7358659,38.3364812 64.1098846,38.3942276 64.4461462,38.5088319 C64.7832961,38.6238804 65.069807,38.809113 65.3074555,39.0649738 C65.5446598,39.3203905 65.7276714,39.6530984 65.8556018,40.0626534 C65.983088,40.4722084 66.0474974,40.9741576 66.0474974,41.5693894 L66.0474974,46.962456 L63.7771767,46.962456 L63.7771767,41.5693894 C63.7771767,41.2877648 63.7474151,41.0558909 63.6874477,40.8728794 C63.626592,40.690312 63.5421934,40.5481671 63.4329195,40.4460004 C63.3232014,40.3447222 63.1899406,40.2740939 63.0335812,40.2350041 C62.8772218,40.1959142 62.6999848,40.1763693 62.500982,40.1763693 C62.1518386,40.1763693 61.8595531,40.2634331 61.6245698,40.438449 C61.3895865,40.6134649 61.2123496,40.8493366 61.0924148,41.1469525 C61.0924148,41.1731605 61.0937474,41.2020337 61.0964126,41.2331279 C61.0990778,41.2642221 61.1004105,41.2930952 61.1004105,41.318859 L61.1004105,46.962456 L58.8380854,46.962456 L58.8380854,41.5849365 C58.8380854,41.3033119 58.8096564,41.071438 58.7519101,40.8884265 C58.6946079,40.7058591 58.6106536,40.5628258 58.5013797,40.4579939 C58.3916616,40.3536063 58.2579565,40.2803128 58.0984877,40.2390019 C57.9394631,40.1972469 57.7600052,40.1763693 57.5623349,40.1763693 C57.2282944,40.1763693 56.9466698,40.2465534 56.7170169,40.3878099 C56.4869198,40.5286222 56.3047967,40.7240714 56.1688706,40.9741576 L56.1688706,46.962456 L53.9069898,46.962456 L53.9069898,38.4932848 L56.0280583,38.4932848 Z" id="Fill-61" fill="#2F3236" mask="url(#mask-8)"></path>
                <path d="M71.4241729,40.1685958 C71.1789729,40.1685958 70.9639788,40.2116834 70.7787462,40.2974146 C70.5935136,40.3835899 70.4340448,40.5035247 70.3012281,40.6576631 C70.1679673,40.8118015 70.060026,40.9957014 69.9760717,41.2098072 C69.8930057,41.4234688 69.8325941,41.6611173 69.7961695,41.9218644 L72.9429024,41.9218644 L72.9429024,41.7419622 C72.9375719,41.5176398 72.9051451,41.3084202 72.8451777,41.1156362 C72.7847662,40.922408 72.6937046,40.7553877 72.5711046,40.6145754 C72.4489488,40.4737631 72.291701,40.364045 72.101138,40.2858653 C71.9110192,40.2076856 71.6853642,40.1685958 71.4241729,40.1685958 M71.6826989,47.1190375 C71.0252787,47.1190375 70.4362658,47.0119846 69.9174369,46.7978788 C69.3977196,46.5842173 68.9575146,46.2919318 68.5950451,45.9214666 C68.2316871,45.5514457 67.955393,45.1170153 67.7652742,44.6181755 C67.5747111,44.1202242 67.4792075,43.5867366 67.4792075,43.0177127 L67.4792075,42.7121012 C67.4792075,42.0706723 67.5720459,41.4825477 67.7572785,40.9468391 C67.9425111,40.4124631 68.2059234,39.9518248 68.5479596,39.5658125 C68.8895515,39.1793561 69.304437,38.8781865 69.7921717,38.6618598 C70.2803506,38.4450888 70.8267201,38.3367033 71.4321685,38.3367033 C72.0429474,38.3367033 72.5804329,38.4375373 73.0441806,38.638317 C73.5088168,38.8390967 73.8988269,39.1211655 74.2146551,39.483635 C74.5304833,39.8461045 74.7676876,40.2832001 74.9271564,40.7949218 C75.086181,41.3061992 75.1656933,41.8747789 75.1656933,42.5006606 L75.1656933,43.4636924 L69.7726268,43.4636924 C69.8090514,43.7404307 69.8836775,43.9909611 69.9956166,44.2148394 C70.1079999,44.439606 70.2510332,44.6310574 70.4260491,44.7905262 C70.601065,44.9499951 70.8058425,45.0734834 71.0408258,45.162324 C71.2753649,45.2507204 71.5392214,45.2951407 71.8315069,45.2951407 C72.2437271,45.2951407 72.6244089,45.2182936 72.9739966,45.0641552 C73.3235842,44.9109052 73.6238653,44.6719241 73.8743957,44.3481002 L74.9857912,45.5927566 C74.8503093,45.7859848 74.6806238,45.9738826 74.4771789,46.1560057 C74.2732898,46.3390173 74.0334203,46.5020397 73.7571262,46.6459615 C73.4803878,46.7889948 73.1685574,46.9040433 72.821635,46.9897745 C72.4747126,47.076394 72.0949192,47.1190375 71.6826989,47.1190375" id="Fill-62" fill="#2F3236" mask="url(#mask-8)"></path>
                <path d="M78.5318624,38.4932848 L78.6020464,39.4718636 C78.8938877,39.1067289 79.2461406,38.8264369 79.658805,38.6305435 C80.0710252,38.43465 80.5303309,38.3364812 81.036278,38.3364812 C81.4382815,38.3364812 81.8034163,38.392895 82.1316821,38.5048341 C82.4612806,38.6176616 82.742461,38.8015616 82.9774443,39.0574224 C83.2124276,39.312839 83.3936624,39.6468795 83.5215928,40.0586556 C83.6495232,40.4708758 83.7134884,40.977267 83.7134884,41.5773851 L83.7134884,46.962456 L81.4511634,46.962456 L81.4511634,41.561838 C81.4511634,41.29043 81.4214018,41.0661076 81.3614344,40.8884265 C81.3010229,40.7111895 81.2139591,40.5703772 81.0989106,40.4655454 C80.9843062,40.3616019 80.8430497,40.2869758 80.6764737,40.2425555 C80.5094534,40.1985795 80.3166694,40.1763693 80.096789,40.1763693 C79.7627484,40.1763693 79.4775702,40.2492186 79.2399217,40.3953613 C79.0027174,40.5419483 78.8108218,40.7396185 78.664679,40.9905931 L78.664679,46.962456 L76.4027982,46.962456 L76.4027982,38.4932848 L78.5318624,38.4932848 Z" id="Fill-63" fill="#2F3236" mask="url(#mask-8)"></path>
                <path d="M88.1360162,36.411084 L88.1360162,38.4930627 L89.5841175,38.4930627 L89.5841175,40.1530487 L88.1360162,40.1530487 L88.1360162,44.3791944 C88.1360162,44.5568755 88.1542286,44.7030183 88.1906532,44.8176226 C88.2270778,44.9331153 88.282159,45.0228443 88.3550082,45.0876979 C88.4278575,45.15344 88.5180307,45.197416 88.6250836,45.2209588 C88.7321364,45.2445015 88.85829,45.2560508 89.0044328,45.2560508 C89.140803,45.2560508 89.2642914,45.2507204 89.3766748,45.2405037 C89.4886139,45.230287 89.5867827,45.216961 89.6698486,45.2014139 L89.6698486,46.9155926 C89.4819508,46.9728948 89.2771733,47.0213129 89.0555161,47.0604027 C88.8334147,47.0999368 88.5819959,47.1190375 88.3003713,47.1190375 C87.9294619,47.1190375 87.5958656,47.0732846 87.2982497,46.982223 C87.0006338,46.8911614 86.7465498,46.7459071 86.5351092,46.5477926 C86.3241129,46.349234 86.1610905,46.0911521 86.0460419,45.7731029 C85.9309934,45.4546095 85.8736912,45.0708182 85.8736912,44.6221734 L85.8736912,40.1530487 L84.6370305,40.1530487 L84.6370305,38.4930627 L85.8736912,38.4930627 L85.8736912,36.411084 L88.1360162,36.411084 Z" id="Fill-64" fill="#2F3236" mask="url(#mask-8)"></path>
            </g>
        </g>
    </g>
</svg>